999
dxfrw 0.6.3
  0
SECTION
  2
HEADER
  9
$ACADVER
  1
AC1021
  9
$DWGCODEPAGE
  3
ANSI_1252
  9
$INSBASE
 10
0
 20
0
 30
0
  9
$EXTMIN
 10
54.448428
 20
119.337124
 30
0
  9
$EXTMAX
 10
779.5114330000007
 20
552.1163945000004
 30
0
  9
$LIMMIN
 10
0
 20
0
  9
$LIMMAX
 10
420
 20
297
  9
$ORTHOMODE
 70
    0
  9
$REGENMODE
 70
    1
  9
$FILLMODE
 70
    1
  9
$QTEXTMODE
 70
    0
  9
$MIRRTEXT
 70
    0
  9
$LTSCALE
 40
1
  9
$ATTMODE
 70
    0
  9
$TEXTSIZE
 40
2.5
  9
$TRACEWID
 40
15.68
  9
$TEXTSTYLE
  7
STANDARD
  9
$CLAYER
  8
0
  9
$CELTYPE
  6
BYLAYER
  9
$CECOLOR
 62
  256
  9
$CELTSCALE
 40
1
  9
$DISPSILH
 70
    0
  9
$DIMSCALE
 40
2.5
  9
$DIMASZ
 40
2.5
  9
$DIMEXO
 40
0.625
  9
$DIMDLI
 40
3.75
  9
$DIMRND
 40
0
  9
$DIMDLE
 40
0
  9
$DIMEXE
 40
1.25
  9
$DIMTP
 40
0
  9
$DIMTM
 40
0
  9
$DIMTXT
 40
2.5
  9
$DIMCEN
 40
2.5
  9
$DIMTSZ
 40
0
  9
$DIMTOL
 70
    0
  9
$DIMLIM
 70
    0
  9
$DIMTIH
 70
    0
  9
$DIMTOH
 70
    0
  9
$DIMSE1
 70
    0
  9
$DIMSE2
 70
    0
  9
$DIMTAD
 70
    1
  9
$DIMZIN
 70
    8
  9
$DIMBLK
  1

  9
$DIMASO
 70
    1
  9
$DIMSHO
 70
    1
  9
$DIMPOST
  1

  9
$DIMAPOST
  1

  9
$DIMALT
 70
    0
  9
$DIMALTD
 70
    3
  9
$DIMALTF
 40
0.03937
  9
$DIMLFAC
 40
1
  9
$DIMTOFL
 70
    1
  9
$DIMTVP
 40
0
  9
$DIMTIX
 70
    0
  9
$DIMSOXD
 70
    0
  9
$DIMSAH
 70
    0
  9
$DIMBLK1
  1

  9
$DIMBLK2
  1

  9
$DIMSTYLE
  2
STANDARD
  9
$DIMCLRD
 70
    0
  9
$DIMCLRE
 70
    0
  9
$DIMCLRT
 70
    0
  9
$DIMTFAC
 40
1
  9
$DIMGAP
 40
0.625
  9
$DIMJUST
 70
    0
  9
$DIMSD1
 70
    0
  9
$DIMSD2
 70
    0
  9
$DIMTOLJ
 70
    0
  9
$DIMTZIN
 70
    8
  9
$DIMALTZ
 70
    0
  9
$DIMALTTZ
 70
    0
  9
$DIMUPT
 70
    0
  9
$DIMDEC
 70
    2
  9
$DIMTDEC
 70
    2
  9
$DIMALTU
 70
    2
  9
$DIMALTTD
 70
    3
  9
$DIMTXSTY
  7
STANDARD
  9
$DIMAUNIT
 70
    0
  9
$DIMADEC
 70
    0
  9
$DIMALTRND
 40
0
  9
$DIMAZIN
 70
    0
  9
$DIMDSEP
 70
   44
  9
$DIMATFIT
 70
    3
  9
$DIMFRAC
 70
    0
  9
$DIMLDRBLK
  1
STANDARD
  9
$DIMLUNIT
 70
    2
  9
$DIMLWD
 70
   -2
  9
$DIMLWE
 70
   -2
  9
$DIMTMOVE
 70
    0
  9
$DIMFXL
 40
1
  9
$DIMFXLON
 70
    0
  9
$DIMJOGANG
 40
0.7854
  9
$DIMTFILL
 70
    0
  9
$DIMTFILLCLR
 70
    0
  9
$DIMARCSYM
 70
    0
  9
$DIMLTYPE
  6

  9
$DIMLTEX1
  6

  9
$DIMLTEX2
  6

  9
$LUNITS
 70
    2
  9
$LUPREC
 70
    4
  9
$SKETCHINC
 40
1
  9
$FILLETRAD
 40
0
  9
$AUNITS
 70
    0
  9
$AUPREC
 70
    2
  9
$MENU
  1
.
  9
$ELEVATION
 40
0
  9
$PELEVATION
 40
0
  9
$THICKNESS
 40
0
  9
$LIMCHECK
 70
    0
  9
$CHAMFERA
 40
0
  9
$CHAMFERB
 40
0
  9
$CHAMFERC
 40
0
  9
$CHAMFERD
 40
0
  9
$SKPOLY
 70
    0
  9
$USRTIMER
 70
    1
  9
$ANGBASE
 50
0
  9
$ANGDIR
 70
    0
  9
$PDMODE
 70
   96
  9
$PDSIZE
 40
-2
  9
$PLINEWID
 40
0
  9
$SPLFRAME
 70
    0
  9
$SPLINETYPE
 70
    2
  9
$SPLINESEGS
 70
    8
  9
$HANDSEED
  5
20000
  9
$SURFTAB1
 70
    6
  9
$SURFTAB2
 70
    6
  9
$SURFTYPE
 70
    6
  9
$SURFU
 70
    6
  9
$SURFV
 70
    6
  9
$UCSBASE
  2

  9
$UCSNAME
  2

  9
$UCSORG
 10
0
 20
0
 30
0
  9
$UCSXDIR
 10
1
 20
0
 30
0
  9
$UCSYDIR
 10
0
 20
1
 30
0
  9
$UCSORTHOREF
  2

  9
$UCSORTHOVIEW
 70
    0
  9
$UCSORGTOP
 10
0
 20
0
 30
0
  9
$UCSORGBOTTOM
 10
0
 20
0
 30
0
  9
$UCSORGLEFT
 10
0
 20
0
 30
0
  9
$UCSORGRIGHT
 10
0
 20
0
 30
0
  9
$UCSORGFRONT
 10
0
 20
0
 30
0
  9
$UCSORGBACK
 10
0
 20
0
 30
0
  9
$PUCSBASE
  2

  9
$PUCSNAME
  2

  9
$PUCSORG
 10
0
 20
0
 30
0
  9
$PUCSXDIR
 10
1
 20
0
 30
0
  9
$PUCSYDIR
 10
0
 20
1
 30
0
  9
$PUCSORTHOREF
  2

  9
$PUCSORTHOVIEW
 70
    0
  9
$PUCSORGTOP
 10
0
 20
0
 30
0
  9
$PUCSORGBOTTOM
 10
0
 20
0
 30
0
  9
$PUCSORGLEFT
 10
0
 20
0
 30
0
  9
$PUCSORGRIGHT
 10
0
 20
0
 30
0
  9
$PUCSORGFRONT
 10
0
 20
0
 30
0
  9
$PUCSORGBACK
 10
0
 20
0
 30
0
  9
$USERI1
 70
    0
  9
$USERI2
 70
    0
  9
$USERI3
 70
    0
  9
$USERI4
 70
    0
  9
$USERI5
 70
    0
  9
$USERR1
 40
0
  9
$USERR2
 40
0
  9
$USERR3
 40
0
  9
$USERR4
 40
0
  9
$USERR5
 40
0
  9
$WORLDVIEW
 70
    1
  9
$SHADEDGE
 70
    3
  9
$SHADEDIF
 70
   70
  9
$TILEMODE
 70
    1
  9
$MAXACTVP
 70
   64
  9
$PINSBASE
 10
0
 20
0
 30
0
  9
$PLIMCHECK
 70
    0
  9
$PEXTMIN
 10
0
 20
0
 30
0
  9
$PEXTMAX
 10
0
 20
0
 30
0
  9
$SNAPSTYLE
 70
    0
  9
$PLIMMIN
 10
0
 20
0
  9
$PLIMMAX
 10
210
 20
297
  9
$UNITMODE
 70
    0
  9
$VISRETAIN
 70
    1
  9
$PLINEGEN
 70
    0
  9
$PSLTSCALE
 70
    1
  9
$TREEDEPTH
 70
 3020
  9
$CMLSTYLE
  2
Standard
  9
$CMLJUST
 70
    0
  9
$CMLSCALE
 40
20
  9
$PROXYGRAPHICS
 70
    1
  9
$MEASUREMENT
 70
    1
  9
$CELWEIGHT
370
   -1
  9
$ENDCAPS
280
    0
  9
$JOINSTYLE
280
    0
  9
$LWDISPLAY
290
    0
  9
$INSUNITS
 70
    0
  9
$HYPERLINKBASE
  1

  9
$STYLESHEET
  1

  9
$XEDIT
290
    1
  9
$CEPSNTYPE
380
    0
  9
$PSTYLEMODE
290
    1
  9
$EXTNAMES
290
    1
  9
$PSVPSCALE
 40
1
  9
$OLESTARTUP
290
    0
  9
$SORTENTS
280
  127
  9
$INDEXCTL
280
    0
  9
$HIDETEXT
280
    1
  9
$XCLIPFRAME
290
    0
  9
$HALOGAP
280
    0
  9
$OBSCOLOR
 70
  257
  9
$OBSLTYPE
280
    0
  9
$INTERSECTIONDISPLAY
280
    0
  9
$INTERSECTIONCOLOR
 70
  257
  9
$DIMASSOC
280
    1
  9
$PROJECTNAME
  1

  9
$CAMERADISPLAY
290
    0
  9
$LENSLENGTH
 40
50
  9
$CAMERAHEIGHT
 40
0
  9
$STEPSPERSEC
 40
2
  9
$STEPSIZE
 40
50
  9
$3DDWFPREC
 40
2
  9
$PSOLWIDTH
 40
5
  9
$PSOLHEIGHT
 40
80
  9
$LOFTANG1
 40
1.570796326794897
  9
$LOFTANG2
 40
1.570796326794897
  9
$LOFTMAG1
 40
0
  9
$LOFTMAG2
 40
0
  9
$LOFTPARAM
 70
    7
  9
$LOFTNORMALS
280
    1
  9
$LATITUDE
 40
1
  9
$LONGITUDE
 40
1
  9
$NORTHDIRECTION
 40
0
  9
$TIMEZONE
 70
-8000
  9
$LIGHTGLYPHDISPLAY
280
    1
  9
$TILEMODELIGHTSYNCH
280
    1
  9
$SOLIDHIST
280
    1
  9
$SHOWHIST
280
    1
  9
$DWFFRAME
280
    2
  9
$DGNFRAME
280
    0
  9
$REALWORLDSCALE
290
    1
  9
$INTERFERECOLOR
 62
    1
  9
$CSHADOW
280
    0
  9
$SHADOWPLANELOCATION
 40
0
  0
ENDSEC
  0
SECTION
  2
CLASSES
  0
ENDSEC
  0
SECTION
  2
TABLES
  0
TABLE
  2
VPORT
  5
8
330
0
100
AcDbSymbolTable
 70
    1
  0
VPORT
  5
31
330
2
100
AcDbSymbolTableRecord
100
AcDbViewportTableRecord
  2
*ACTIVE
 70
    0
 10
0
 20
0
 11
1
 21
1
 12
241.2630146250013
 22
199.409618250001
 13
0
 23
0
 14
10
 24
10
 15
10
 25
10
 16
0
 26
0
 36
1
 17
0
 27
0
 37
0
 40
244.9797255000013
 41
1.682058047493404
 42
50
 43
0
 44
0
 50
0
 51
0
 71
    0
 72
  100
 73
    1
 74
    3
 75
    0
 76
    1
 77
    0
 78
    0
281
    0
 65
    1
110
0
120
0
130
0
111
1
121
0
131
0
112
0
122
1
132
0
 79
    0
146
0
348
10020
 60
    7
 61
    5
292
1
282
    1
141
0
142
0
 63
  250
421
3358443
  0
ENDTAB
  0
TABLE
  2
LTYPE
  5
5
330
0
100
AcDbSymbolTable
 70
    4
  0
LTYPE
  5
14
330
5
100
AcDbSymbolTableRecord
100
AcDbLinetypeTableRecord
  2
ByBlock
 70
    0
  3

 72
   65
 73
    0
 40
0
  0
LTYPE
  5
15
330
5
100
AcDbSymbolTableRecord
100
AcDbLinetypeTableRecord
  2
ByLayer
 70
    0
  3

 72
   65
 73
    0
 40
0
  0
LTYPE
  5
16
330
5
100
AcDbSymbolTableRecord
100
AcDbLinetypeTableRecord
  2
Continuous
 70
    0
  3
Solid line
 72
   65
 73
    0
 40
0
  0
LTYPE
  5
32
330
5
100
AcDbSymbolTableRecord
100
AcDbLinetypeTableRecord
  2
DOT
 70
    0
  3
Dot . . . . . . . . . . . . . . . . . . . . . .
 72
   65
 73
    2
 40
6.35
 49
0
 74
    0
 49
-6.35
 74
    0
  0
LTYPE
  5
33
330
5
100
AcDbSymbolTableRecord
100
AcDbLinetypeTableRecord
  2
DOTTINY
 70
    0
  3
Dot (.15x) .....................................
 72
   65
 73
    2
 40
0.9525
 49
0
 74
    0
 49
-0.9525
 74
    0
  0
LTYPE
  5
34
330
5
100
AcDbSymbolTableRecord
100
AcDbLinetypeTableRecord
  2
DOT2
 70
    0
  3
Dot (.5x) .....................................
 72
   65
 73
    2
 40
3.175
 49
0
 74
    0
 49
-3.175
 74
    0
  0
LTYPE
  5
35
330
5
100
AcDbSymbolTableRecord
100
AcDbLinetypeTableRecord
  2
DOTX2
 70
    0
  3
Dot (2x) .  .  .  .  .  .  .  .  .  .  .  .  .
 72
   65
 73
    2
 40
12.7
 49
0
 74
    0
 49
-12.7
 74
    0
  0
LTYPE
  5
36
330
5
100
AcDbSymbolTableRecord
100
AcDbLinetypeTableRecord
  2
DASHED
 70
    0
  3
Dashed _ _ _ _ _ _ _ _ _ _ _ _ _ _ _ _ _
 72
   65
 73
    2
 40
19.05
 49
12.7
 74
    0
 49
-6.35
 74
    0
  0
LTYPE
  5
37
330
5
100
AcDbSymbolTableRecord
100
AcDbLinetypeTableRecord
  2
DASHEDTINY
 70
    0
  3
Dashed (.15x) _ _ _ _ _ _ _ _ _ _ _ _ _ _ _ _ _
 72
   65
 73
    2
 40
2.8575
 49
1.905
 74
    0
 49
-0.9525
 74
    0
  0
LTYPE
  5
38
330
5
100
AcDbSymbolTableRecord
100
AcDbLinetypeTableRecord
  2
DASHED2
 70
    0
  3
Dashed (.5x) _ _ _ _ _ _ _ _ _ _ _ _ _ _ _ _ _
 72
   65
 73
    2
 40
9.524999999999999
 49
6.35
 74
    0
 49
-3.175
 74
    0
  0
LTYPE
  5
39
330
5
100
AcDbSymbolTableRecord
100
AcDbLinetypeTableRecord
  2
DASHEDX2
 70
    0
  3
Dashed (2x) ____  ____  ____  ____  ____  ___
 72
   65
 73
    2
 40
38.09999999999999
 49
25.4
 74
    0
 49
-12.7
 74
    0
  0
LTYPE
  5
3A
330
5
100
AcDbSymbolTableRecord
100
AcDbLinetypeTableRecord
  2
DASHDOT
 70
    0
  3
Dash dot __ . __ . __ . __ . __ . __ . __ . __
 72
   65
 73
    4
 40
25.4
 49
12.7
 74
    0
 49
-6.35
 74
    0
 49
0
 74
    0
 49
-6.35
 74
    0
  0
LTYPE
  5
3B
330
5
100
AcDbSymbolTableRecord
100
AcDbLinetypeTableRecord
  2
DASHDOTTINY
 70
    0
  3
Dash dot (.15x) _._._._._._._._._._._._._._._.
 72
   65
 73
    4
 40
3.81
 49
1.905
 74
    0
 49
-0.9525
 74
    0
 49
0
 74
    0
 49
-0.9525
 74
    0
  0
LTYPE
  5
3C
330
5
100
AcDbSymbolTableRecord
100
AcDbLinetypeTableRecord
  2
DASHDOT2
 70
    0
  3
Dash dot (.5x) _._._._._._._._._._._._._._._.
 72
   65
 73
    4
 40
12.7
 49
6.35
 74
    0
 49
-3.175
 74
    0
 49
0
 74
    0
 49
-3.175
 74
    0
  0
LTYPE
  5
3D
330
5
100
AcDbSymbolTableRecord
100
AcDbLinetypeTableRecord
  2
DASHDOTX2
 70
    0
  3
Dash dot (2x) ____  .  ____  .  ____  .  ___
 72
   65
 73
    4
 40
50.8
 49
25.4
 74
    0
 49
-12.7
 74
    0
 49
0
 74
    0
 49
-12.7
 74
    0
  0
LTYPE
  5
3E
330
5
100
AcDbSymbolTableRecord
100
AcDbLinetypeTableRecord
  2
DIVIDE
 70
    0
  3
Divide ____ . . ____ . . ____ . . ____ . . ____
 72
   65
 73
    6
 40
31.75
 49
12.7
 74
    0
 49
-6.35
 74
    0
 49
0
 74
    0
 49
-6.35
 74
    0
 49
0
 74
    0
 49
-6.35
 74
    0
  0
LTYPE
  5
3F
330
5
100
AcDbSymbolTableRecord
100
AcDbLinetypeTableRecord
  2
DIVIDETINY
 70
    0
  3
Divide (.15x) __..__..__..__..__..__..__..__.._
 72
   65
 73
    6
 40
4.7625
 49
1.905
 74
    0
 49
-0.9525
 74
    0
 49
0
 74
    0
 49
-0.9525
 74
    0
 49
0
 74
    0
 49
-0.9525
 74
    0
  0
LTYPE
  5
40
330
5
100
AcDbSymbolTableRecord
100
AcDbLinetypeTableRecord
  2
DIVIDE2
 70
    0
  3
Divide (.5x) __..__..__..__..__..__..__..__.._
 72
   65
 73
    6
 40
15.875
 49
6.35
 74
    0
 49
-3.175
 74
    0
 49
0
 74
    0
 49
-3.175
 74
    0
 49
0
 74
    0
 49
-3.175
 74
    0
  0
LTYPE
  5
41
330
5
100
AcDbSymbolTableRecord
100
AcDbLinetypeTableRecord
  2
DIVIDEX2
 70
    0
  3
Divide (2x) ________  .  .  ________  .  .  _
 72
   65
 73
    6
 40
63.5
 49
25.4
 74
    0
 49
-12.7
 74
    0
 49
0
 74
    0
 49
-12.7
 74
    0
 49
0
 74
    0
 49
-12.7
 74
    0
  0
LTYPE
  5
42
330
5
100
AcDbSymbolTableRecord
100
AcDbLinetypeTableRecord
  2
BORDER
 70
    0
  3
Border __ __ . __ __ . __ __ . __ __ . __ __ .
 72
   65
 73
    6
 40
44.45
 49
12.7
 74
    0
 49
-6.35
 74
    0
 49
12.7
 74
    0
 49
-6.35
 74
    0
 49
0
 74
    0
 49
-6.35
 74
    0
  0
LTYPE
  5
43
330
5
100
AcDbSymbolTableRecord
100
AcDbLinetypeTableRecord
  2
BORDERTINY
 70
    0
  3
Border (.15x) __.__.__.__.__.__.__.__.__.__.__.
 72
   65
 73
    6
 40
6.6675
 49
1.905
 74
    0
 49
-0.9525
 74
    0
 49
1.905
 74
    0
 49
-0.9525
 74
    0
 49
0
 74
    0
 49
-0.9525
 74
    0
  0
LTYPE
  5
44
330
5
100
AcDbSymbolTableRecord
100
AcDbLinetypeTableRecord
  2
BORDER2
 70
    0
  3
Border (.5x) __.__.__.__.__.__.__.__.__.__.__.
 72
   65
 73
    6
 40
22.225
 49
6.35
 74
    0
 49
-3.175
 74
    0
 49
6.35
 74
    0
 49
-3.175
 74
    0
 49
0
 74
    0
 49
-3.175
 74
    0
  0
LTYPE
  5
45
330
5
100
AcDbSymbolTableRecord
100
AcDbLinetypeTableRecord
  2
BORDERX2
 70
    0
  3
Border (2x) ____  ____  .  ____  ____  .  ___
 72
   65
 73
    6
 40
88.89999999999999
 49
25.4
 74
    0
 49
-12.7
 74
    0
 49
25.4
 74
    0
 49
-12.7
 74
    0
 49
0
 74
    0
 49
-12.7
 74
    0
  0
LTYPE
  5
46
330
5
100
AcDbSymbolTableRecord
100
AcDbLinetypeTableRecord
  2
CENTER
 70
    0
  3
Center ____ _ ____ _ ____ _ ____ _ ____ _ ____
 72
   65
 73
    4
 40
50.8
 49
31.75
 74
    0
 49
-6.35
 74
    0
 49
6.35
 74
    0
 49
-6.35
 74
    0
  0
LTYPE
  5
47
330
5
100
AcDbSymbolTableRecord
100
AcDbLinetypeTableRecord
  2
CENTERTINY
 70
    0
  3
Center (.15x) ___ _ ___ _ ___ _ ___ _ ___ _ ___
 72
   65
 73
    4
 40
7.619999999999999
 49
4.7625
 74
    0
 49
-0.9525
 74
    0
 49
0.9525
 74
    0
 49
-0.9525
 74
    0
  0
LTYPE
  5
48
330
5
100
AcDbSymbolTableRecord
100
AcDbLinetypeTableRecord
  2
CENTER2
 70
    0
  3
Center (.5x) ___ _ ___ _ ___ _ ___ _ ___ _ ___
 72
   65
 73
    4
 40
28.575
 49
19.05
 74
    0
 49
-3.175
 74
    0
 49
3.175
 74
    0
 49
-3.175
 74
    0
  0
LTYPE
  5
49
330
5
100
AcDbSymbolTableRecord
100
AcDbLinetypeTableRecord
  2
CENTERX2
 70
    0
  3
Center (2x) ________  __  ________  __  _____
 72
   65
 73
    4
 40
101.6
 49
63.5
 74
    0
 49
-12.7
 74
    0
 49
12.7
 74
    0
 49
-12.7
 74
    0
  0
ENDTAB
  0
TABLE
  2
LAYER
  5
2
330
0
100
AcDbSymbolTable
 70
    1
  0
LAYER
  5
10
330
2
100
AcDbSymbolTableRecord
100
AcDbLayerTableRecord
  2
0
 70
    0
 62
    7
  6
CONTINUOUS
370
   25
390
F
  0
ENDTAB
  0
TABLE
  2
STYLE
  5
3
330
0
100
AcDbSymbolTable
 70
    3
  0
STYLE
  5
4A
330
2
100
AcDbSymbolTableRecord
100
AcDbTextStyleTableRecord
  2
Standard
 70
    0
 40
0
 41
1
 50
0
 71
    0
 42
1
  3
txt
  4

  0
ENDTAB
  0
TABLE
  2
VIEW
  5
6
330
0
100
AcDbSymbolTable
 70
    0
  0
ENDTAB
  0
TABLE
  2
UCS
  5
7
330
0
100
AcDbSymbolTable
 70
    0
  0
ENDTAB
  0
TABLE
  2
APPID
  5
9
330
0
100
AcDbSymbolTable
 70
    1
  0
APPID
  5
12
330
9
100
AcDbSymbolTableRecord
100
AcDbRegAppTableRecord
  2
ACAD
 70
    0
  0
APPID
  5
4B
330
9
100
AcDbSymbolTableRecord
100
AcDbRegAppTableRecord
  2
LibreCad
 70
    0
  0
ENDTAB
  0
TABLE
  2
DIMSTYLE
  5
A
330
0
100
AcDbSymbolTable
 70
    1
100
AcDbDimStyleTable
 71
    1
  0
DIMSTYLE
105
4C
330
A
100
AcDbSymbolTableRecord
100
AcDbDimStyleTableRecord
  2
Standard
 70
    0
 40
1
 41
2.5
 42
0.625
 43
0.38
 44
1.25
 45
0
 46
0
 47
0
 48
0
 49
1
140
2.5
141
0.09
142
2.5
143
25.4
144
1
145
0
146
1
147
0.625
148
0
 71
    0
 72
    0
 73
    0
 74
    1
 75
    0
 76
    0
 77
    0
 78
    1
 79
    0
170
    0
171
    2
172
    0
173
    0
174
    0
175
    0
176
    0
177
    0
178
    0
179
    0
271
    2
272
    4
273
    2
274
    2
275
    0
276
    0
277
    2
278
    0
279
    0
280
    0
281
    0
282
    0
283
    1
284
    0
285
    0
286
    0
288
    0
289
    3
340
4A
  0
ENDTAB
  0
TABLE
  2
BLOCK_RECORD
  5
1
330
0
100
AcDbSymbolTable
 70
    2
  0
BLOCK_RECORD
  5
1F
330
1
100
AcDbSymbolTableRecord
100
AcDbBlockTableRecord
  2
*Model_Space
 70
    0
280
    1
281
    0
  0
BLOCK_RECORD
  5
1E
330
1
100
AcDbSymbolTableRecord
100
AcDbBlockTableRecord
  2
*Paper_Space
 70
    0
280
    1
281
    0
  0
BLOCK_RECORD
  5
4D
330
1
100
AcDbSymbolTableRecord
100
AcDbBlockTableRecord
  2
Rochettes
 70
    0
280
    1
281
    0
  0
ENDTAB
  0
ENDSEC
  0
SECTION
  2
BLOCKS
  0
BLOCK
  5
20
330
1F
100
AcDbEntity
  8
0
100
AcDbBlockBegin
  2
*Model_Space
 70
    0
 10
0
 20
0
 30
0
  3
*Model_Space
  1

  0
ENDBLK
  5
21
330
1F
100
AcDbEntity
  8
0
100
AcDbBlockEnd
  0
BLOCK
  5
1C
330
1B
100
AcDbEntity
  8
0
100
AcDbBlockBegin
  2
*Paper_Space
 70
    0
 10
0
 20
0
 30
0
  3
*Paper_Space
  1

  0
ENDBLK
  5
1D
330
1F
100
AcDbEntity
  8
0
100
AcDbBlockEnd
  0
BLOCK
  5
4E
330
4D
100
AcDbEntity
  8
0
100
AcDbBlockBegin
  2
Rochettes
 70
    0
 10
0
 20
0
  3
Rochettes
  1

  0
LWPOLYLINE
  5
50
100
AcDbEntity
  8
Layer 1
  6
ByLayer
 62
    7
370
   -1
100
AcDbPolyline
 90
   34
 70
    0
 43
0
 10
29.302559
 20
249.187
 10
29.036476
 20
246.54753
 10
28.273341
 20
244.089117
 10
27.065817
 20
241.864428
 10
25.466572
 20
239.926128
 10
23.528272
 20
238.326883
 10
21.303583
 20
237.119359
 10
18.84517
 20
236.356224
 10
16.2057
 20
236.090141
 10
13.56623
 20
236.356224
 10
11.107817
 20
237.119359
 10
8.883127999999999
 20
238.326883
 10
6.944828
 20
239.926128
 10
5.345583
 20
241.864428
 10
4.138059
 20
244.089117
 10
3.374924
 20
246.54753
 10
3.108841
 20
249.187
 10
3.374924
 20
251.82647
 10
4.138059
 20
254.284883
 10
5.345583
 20
256.509572
 10
6.944828
 20
258.447872
 10
8.883127999999999
 20
260.047117
 10
11.107817
 20
261.254641
 10
13.56623
 20
262.017776
 10
16.2057
 20
262.283859
 10
18.84517
 20
262.017776
 10
21.303583
 20
261.254641
 10
23.528272
 20
260.047117
 10
25.466572
 20
258.447872
 10
27.065817
 20
256.509572
 10
28.273341
 20
254.284883
 10
29.036476
 20
251.82647
 10
29.302559
 20
249.187
 10
29.302559
 20
249.187
  0
LWPOLYLINE
  5
51
100
AcDbEntity
  8
Layer 1
  6
ByLayer
 62
    7
370
   -1
100
AcDbPolyline
 90
   34
 70
    0
 43
0
 10
29.567141
 20
249.187
 10
29.295685
 20
251.879801
 10
28.517135
 20
254.387882
 10
27.285221
 20
256.657515
 10
25.653671
 20
258.634971
 10
23.676215
 20
260.266521
 10
21.406582
 20
261.498435
 10
18.898501
 20
262.276985
 10
16.2057
 20
262.548441
 10
13.512899
 20
262.276985
 10
11.004818
 20
261.498435
 10
8.735185
 20
260.266521
 10
6.757729
 20
258.634971
 10
5.126179
 20
256.657515
 10
3.894265
 20
254.387882
 10
3.115715
 20
251.879801
 10
2.844259
 20
249.187
 10
3.115715
 20
246.494199
 10
3.894265
 20
243.986118
 10
5.126179
 20
241.716485
 10
6.757729
 20
239.739029
 10
8.735185
 20
238.107479
 10
11.004818
 20
236.875565
 10
13.512899
 20
236.097015
 10
16.2057
 20
235.825559
 10
18.898501
 20
236.097015
 10
21.406582
 20
236.875565
 10
23.676215
 20
238.107479
 10
25.653671
 20
239.739029
 10
27.285221
 20
241.716485
 10
28.517135
 20
243.986118
 10
29.295685
 20
246.494199
 10
29.567141
 20
249.187
 10
29.567141
 20
249.187
  0
LWPOLYLINE
  5
52
100
AcDbEntity
  8
Layer 1
  6
ByLayer
 62
    7
370
   -1
100
AcDbPolyline
 90
   10
 70
    0
 43
0
 10
0.330719
 20
249.054709
 10
2.97655
 20
249.054709
 10
3.108841
 20
249.054709
 10
3.108841
 20
249.319291
 10
2.97655
 20
249.319291
 10
0.330719
 20
249.319291
 10
0.198428
 20
249.319291
 10
0.198428
 20
249.054709
 10
0.330719
 20
249.054709
 10
0.330719
 20
249.054709
  0
LWPOLYLINE
  5
53
100
AcDbEntity
  8
Layer 1
  6
ByLayer
 62
    7
370
   -1
100
AcDbPolyline
 90
   10
 70
    0
 43
0
 10
32.080681
 20
249.319291
 10
29.43485
 20
249.319291
 10
29.302559
 20
249.319291
 10
29.302559
 20
249.054709
 10
29.43485
 20
249.054709
 10
32.080681
 20
249.054709
 10
32.212972
 20
249.054709
 10
32.212972
 20
249.319291
 10
32.080681
 20
249.319291
 10
32.080681
 20
249.319291
  0
LWPOLYLINE
  5
54
100
AcDbEntity
  8
Layer 1
  6
ByLayer
 62
    7
370
   -1
100
AcDbPolyline
 90
   10
 70
    0
 43
0
 10
16.337991
 20
233.312019
 10
16.337991
 20
235.95785
 10
16.337991
 20
236.090141
 10
16.073409
 20
236.090141
 10
16.073409
 20
235.95785
 10
16.073409
 20
233.312019
 10
16.073409
 20
233.179728
 10
16.337991
 20
233.179728
 10
16.337991
 20
233.312019
 10
16.337991
 20
233.312019
  0
LWPOLYLINE
  5
55
100
AcDbEntity
  8
Layer 1
  6
ByLayer
 62
    7
370
   -1
100
AcDbPolyline
 90
   12
 70
    0
 43
0
 10
16.206512
 20
248.657835
 10
16.206512
 20
248.657835
 10
16.580472
 20
248.813376
 10
16.734865
 20
249.187812
 10
16.579324
 20
249.561772
 10
16.204888
 20
249.716165
 10
16.204888
 20
249.716165
 10
15.830928
 20
249.560624
 10
15.676535
 20
249.186188
 10
15.832076
 20
248.812228
 10
16.206512
 20
248.657835
 10
16.206512
 20
248.657835
  0
LWPOLYLINE
  5
56
100
AcDbEntity
  8
Layer 1
  6
ByLayer
 62
    7
370
   -1
100
AcDbPolyline
 90
   14
 70
    0
 43
0
 10
15.813865
 20
261.559354
 10
19.78261
 20
236.953135
 10
20.174445
 20
237.016182
 10
20.445449
 20
237.306123
 10
16.476704
 20
241.010286
 10
16.2057
 20
241.263589
 10
15.934696
 20
241.010286
 10
11.965951
 20
237.306123
 10
12.236955
 20
237.016182
 10
12.62879
 20
236.953135
 10
16.597535
 20
261.559354
 10
16.2057
 20
261.622401
 10
15.813865
 20
261.559354
 10
15.813865
 20
261.559354
  0
LWPOLYLINE
  5
57
100
AcDbEntity
  8
Layer 1
  6
ByLayer
 62
    7
370
   -1
100
AcDbPolyline
 90
   14
 70
    0
 43
0
 10
15.813865
 20
261.685448
 10
11.84512
 20
237.079229
 10
11.660939
 20
235.934543
 10
12.507959
 20
236.72624
 10
16.476704
 20
240.430403
 10
16.2057
 20
240.720344
 10
15.934696
 20
240.430403
 10
19.903441
 20
236.72624
 10
20.750461
 20
235.934543
 10
20.56628
 20
237.079229
 10
16.597535
 20
261.685448
 10
16.2057
 20
264.120696
 10
15.813865
 20
261.685448
 10
15.813865
 20
261.685448
  0
LWPOLYLINE
  5
58
100
AcDbEntity
  8
Layer 1
  6
ByLayer
 62
    7
370
   -1
100
AcDbPolyline
 90
   22
 70
    0
 43
0
 10
14.750494
 20
263.739065
 10
14.750494
 20
267.443227
 10
14.353619
 20
267.443227
 10
14.083506
 20
267.152456
 10
17.787668
 20
263.712877
 10
18.454656
 20
263.093276
 10
18.454656
 20
264.003648
 10
18.454656
 20
267.70781
 10
18.454656
 20
268.104684
 10
17.660907
 20
268.104684
 10
17.660906
 20
267.70781
 10
17.660906
 20
264.003648
 10
18.057781
 20
264.003648
 10
18.327894
 20
264.294419
 10
14.623732
 20
267.733998
 10
13.956744
 20
268.353599
 10
13.956744
 20
267.443227
 10
13.956744
 20
263.739065
 10
13.956744
 20
263.342191
 10
14.750493
 20
263.342191
 10
14.750494
 20
263.739065
 10
14.750494
 20
263.739065
  0
LWPOLYLINE
  5
59
100
AcDbEntity
  8
Layer 1
  6
ByLayer
 62
    7
370
   -1
100
AcDbPolyline
 90
    5
 70
    0
 43
0
 10
310.508519
 20
120.053184
 10
310.50853
 20
6.951784
 10
240.170147
 20
6.951787
 10
240.170136
 20
120.053187
 10
310.508519
 20
120.053184
  0
LWPOLYLINE
  5
5A
100
AcDbEntity
  8
Layer 1
  6
ByLayer
 62
    7
370
   -1
100
AcDbPolyline
 90
    5
 70
    0
 43
0
 10
163.66543
 20
120.053191
 10
163.665417
 20
6.95179
 10
60.440812
 20
6.951795
 10
60.440806
 20
120.053195
 10
163.66543
 20
120.053191
  0
LWPOLYLINE
  5
5B
100
AcDbEntity
  8
Layer 1
  6
ByLayer
 62
    7
370
   -1
100
AcDbPolyline
 90
    5
 70
    0
 43
0
 10
212.631822
 20
83.615043
 10
212.631822
 20
6.951812
 10
166.31125
 20
6.951796
 10
166.311258
 20
83.615043
 10
212.631822
 20
83.615043
  0
LWPOLYLINE
  5
5C
100
AcDbEntity
  8
Layer 1
  6
ByLayer
 62
    7
370
   -1
100
AcDbPolyline
 90
    5
 70
    0
 43
0
 10
166.31126
 20
120.053191
 10
237.524306
 20
120.053187
 10
237.524304
 20
86.280614
 10
166.311258
 20
86.280601
 10
166.31126
 20
120.053191
  0
LWPOLYLINE
  5
5D
100
AcDbEntity
  8
Layer 1
  6
ByLayer
 62
    7
370
   -1
100
AcDbPolyline
 90
    5
 70
    0
 43
0
 10
311.232924
 20
122.24268
 10
61.165249
 20
122.242707
 10
61.165257
 20
230.597245
 10
311.232929
 20
230.597246
 10
311.232924
 20
122.24268
  0
LWPOLYLINE
  5
5E
100
AcDbEntity
  8
Layer 1
  6
ByLayer
 62
    7
370
   -1
100
AcDbPolyline
 90
    9
 70
    0
 43
0
 10
310.508525
 20
231.053589
 10
310.508525
 20
122.699026
 10
240.331873
 20
122.699026
 10
240.331873
 20
141.21982
 10
237.686043
 20
141.21982
 10
237.686043
 20
122.699026
 10
60.440811
 20
122.699026
 10
60.440801
 20
231.053589
 10
310.508525
 20
231.053589
  0
LWPOLYLINE
  5
5F
100
AcDbEntity
  8
Layer 1
  6
ByLayer
 62
    7
370
   -1
100
AcDbPolyline
 90
    6
 70
    0
 43
0
 10
310.508525
 20
120.053196
 10
310.508525
 20
6.951812
 10
240.170142
 20
6.9518
 10
240.170142
 20
6.9518
 10
240.170142
 20
120.053196
 10
310.508525
 20
120.053196
  0
LWPOLYLINE
  5
60
100
AcDbEntity
  8
Layer 1
  6
ByLayer
 62
    7
370
   -1
100
AcDbPolyline
 90
   11
 70
    0
 43
0
 10
237.524312
 20
120.053196
 10
237.524312
 20
6.9518
 10
237.524312
 20
6.9518
 10
215.277652
 20
6.951796
 10
215.277652
 20
6.951796
 10
215.277652
 20
86.24325399999999
 10
213.954737
 20
86.24325399999999
 10
213.954737
 20
86.260873
 10
166.311258
 20
86.260873
 10
166.311258
 20
120.053196
 10
237.524312
 20
120.053196
  0
LWPOLYLINE
  5
61
100
AcDbEntity
  8
Layer 1
  6
ByLayer
 62
    7
370
   -1
100
AcDbPolyline
 90
    7
 70
    0
 43
0
 10
163.665428
 20
120.053196
 10
163.665428
 20
84.93795799999999
 10
163.665428
 20
64.486535
 10
163.66542
 20
6.951796
 10
60.440811
 20
6.951796
 10
60.440811
 20
120.053196
 10
163.665428
 20
120.053196
  0
LWPOLYLINE
  5
62
100
AcDbEntity
  8
Layer 1
  6
ByLayer
 62
    7
370
   -1
100
AcDbPolyline
 90
    9
 70
    0
 43
0
 10
212.631822
 20
83.615043
 10
212.631822
 20
6.951796
 10
166.31125
 20
6.951796
 10
166.311258
 20
63.16362
 10
188.007064
 20
63.16362
 10
188.007064
 20
65.80945
 10
166.311258
 20
65.80945
 10
166.311258
 20
83.615043
 10
212.631822
 20
83.615043
  0
LWPOLYLINE
  5
63
100
AcDbEntity
  8
Layer 1
  6
ByLayer
 62
    7
370
   -1
100
AcDbPolyline
 90
   10
 70
    0
 43
0
 10
57.170318
 20
237.668164
 10
57.170318
 20
237.641736
 10
53.826226
 20
237.641736
 10
53.826236
 20
121.376111
 10
53.826236
 20
0.337221
 10
213.954737
 20
0.337221
 10
317.1231
 20
0.337237
 10
317.1231
 20
121.376111
 10
317.1231
 20
237.668164
 10
57.170318
 20
237.668164
  0
LWPOLYLINE
  5
64
100
AcDbEntity
  8
Layer 1
  6
ByLayer
 62
    7
370
   -1
100
AcDbPolyline
 90
    5
 70
    0
 43
0
 10
177.061944
 20
122.699026
 10
177.061944
 20
120.053196
 10
216.749395
 20
120.053196
 10
216.749395
 20
122.699026
 10
177.061944
 20
122.699026
  0
LWPOLYLINE
  5
65
100
AcDbEntity
  8
Layer 1
  6
ByLayer
 62
    7
370
   -1
100
AcDbPolyline
 90
    5
 70
    0
 43
0
 10
177.061944
 20
122.699026
 10
177.061944
 20
120.053196
 10
216.749395
 20
120.053196
 10
216.749395
 20
122.699026
 10
177.061944
 20
122.699026
  0
LWPOLYLINE
  5
66
100
AcDbEntity
  8
Layer 1
  6
ByLayer
 62
    7
370
   -1
100
AcDbPolyline
 90
    6
 70
    0
 43
0
 10
177.061945
 20
122.699107
 10
216.749395
 20
122.699107
 10
216.749395
 20
120.053115
 10
177.061945
 20
120.053115
 10
177.061945
 20
122.699107
 10
177.061945
 20
122.699107
  0
LWPOLYLINE
  5
67
100
AcDbEntity
  8
Layer 1
  6
ByLayer
 62
    7
370
   -1
100
AcDbPolyline
 90
    6
 70
    0
 43
0
 10
177.061945
 20
122.699107
 10
216.749395
 20
122.699107
 10
216.749395
 20
120.053115
 10
177.061945
 20
120.053115
 10
177.061945
 20
122.699107
 10
177.061945
 20
122.699107
  0
LWPOLYLINE
  5
68
100
AcDbEntity
  8
Layer 1
  6
ByLayer
 62
    7
370
   -1
100
AcDbPolyline
 90
    5
 70
    0
 43
0
 10
187.165127
 20
86.260873
 10
187.165127
 20
83.615043
 10
210.977597
 20
83.615043
 10
210.977597
 20
86.260873
 10
187.165127
 20
86.260873
  0
LWPOLYLINE
  5
69
100
AcDbEntity
  8
Layer 1
  6
ByLayer
 62
    7
370
   -1
100
AcDbPolyline
 90
    5
 70
    0
 43
0
 10
187.165127
 20
86.260873
 10
187.165127
 20
83.615043
 10
210.977597
 20
83.615043
 10
210.977597
 20
86.260873
 10
187.165127
 20
86.260873
  0
LWPOLYLINE
  5
6A
100
AcDbEntity
  8
Layer 1
  6
ByLayer
 62
    7
370
   -1
100
AcDbPolyline
 90
   19
 70
    0
 43
0
 10
188.466354
 20
86.260873
 10
188.575859
 20
88.429473
 10
188.897266
 20
90.53543000000001
 10
189.419914
 20
92.568082
 10
190.133142
 20
94.516767
 10
191.026289
 20
96.370825
 10
192.088692
 20
98.11959400000001
 10
193.309691
 20
99.75241200000001
 10
194.678624
 20
101.258618
 10
196.184831
 20
102.627552
 10
197.817649
 20
103.848551
 10
199.566417
 20
104.910954
 10
201.420475
 20
105.8041
 10
203.36916
 20
106.517328
 10
205.401812
 20
107.039976
 10
207.507769
 20
107.361384
 10
209.67637
 20
107.470889
 10
209.67637
 20
86.260873
 10
188.466354
 20
86.260873
  0
LWPOLYLINE
  5
6B
100
AcDbEntity
  8
Layer 1
  6
ByLayer
 62
    7
370
   -1
100
AcDbPolyline
 90
    6
 70
    0
 43
0
 10
210.977597
 20
83.61493
 10
187.165127
 20
83.61493
 10
187.165127
 20
86.260857
 10
210.977597
 20
86.260857
 10
210.977597
 20
83.61493
 10
210.977597
 20
83.61493
  0
LWPOLYLINE
  5
6C
100
AcDbEntity
  8
Layer 1
  6
ByLayer
 62
    7
370
   -1
100
AcDbPolyline
 90
    6
 70
    0
 43
0
 10
210.977597
 20
83.61493
 10
187.165127
 20
83.61493
 10
187.165127
 20
86.260857
 10
210.977597
 20
86.260857
 10
210.977597
 20
83.61493
 10
210.977597
 20
83.61493
  0
LWPOLYLINE
  5
6D
100
AcDbEntity
  8
Layer 1
  6
ByLayer
 62
    7
370
   -1
100
AcDbPolyline
 90
    5
 70
    0
 43
0
 10
163.665428
 20
116.867364
 10
163.665428
 20
92.65801999999999
 10
166.311258
 20
92.65801999999999
 10
166.311258
 20
116.867364
 10
163.665428
 20
116.867364
  0
LWPOLYLINE
  5
6E
100
AcDbEntity
  8
Layer 1
  6
ByLayer
 62
    7
370
   -1
100
AcDbPolyline
 90
    5
 70
    0
 43
0
 10
163.665428
 20
116.867364
 10
163.665428
 20
92.65801999999999
 10
166.311258
 20
92.65801999999999
 10
166.311258
 20
116.867364
 10
163.665428
 20
116.867364
  0
LWPOLYLINE
  5
6F
100
AcDbEntity
  8
Layer 1
  6
ByLayer
 62
    7
370
   -1
100
AcDbPolyline
 90
   19
 70
    0
 43
0
 10
163.665428
 20
93.980935
 10
161.460683
 20
94.092264
 10
159.319626
 20
94.419028
 10
157.253096
 20
94.95038700000001
 10
155.271932
 20
95.67550199999999
 10
153.386974
 20
96.583533
 10
151.609059
 20
97.663642
 10
149.949028
 20
98.904991
 10
148.417718
 20
100.296739
 10
147.02597
 20
101.828049
 10
145.784622
 20
103.48808
 10
144.704512
 20
105.265995
 10
143.796481
 20
107.150953
 10
143.071366
 20
109.132117
 10
142.540007
 20
111.198647
 10
142.213243
 20
113.339704
 10
142.101914
 20
115.544449
 10
163.665428
 20
115.544449
 10
163.665428
 20
93.980935
  0
LWPOLYLINE
  5
70
100
AcDbEntity
  8
Layer 1
  6
ByLayer
 62
    7
370
   -1
100
AcDbPolyline
 90
    6
 70
    0
 43
0
 10
166.311363
 20
116.867364
 10
166.311363
 20
92.65801999999999
 10
163.665436
 20
92.65801999999999
 10
163.665436
 20
116.867364
 10
166.311363
 20
116.867364
 10
166.311363
 20
116.867364
  0
LWPOLYLINE
  5
71
100
AcDbEntity
  8
Layer 1
  6
ByLayer
 62
    7
370
   -1
100
AcDbPolyline
 90
    6
 70
    0
 43
0
 10
166.311363
 20
116.867364
 10
166.311363
 20
92.65801999999999
 10
163.665436
 20
92.65801999999999
 10
163.665436
 20
116.867364
 10
166.311363
 20
116.867364
 10
166.311363
 20
116.867364
  0
LWPOLYLINE
  5
72
100
AcDbEntity
  8
Layer 1
  6
ByLayer
 62
    7
370
   -1
100
AcDbPolyline
 90
    5
 70
    0
 43
0
 10
237.524312
 20
116.039218
 10
237.524312
 20
91.82987300000001
 10
240.170142
 20
91.82987300000001
 10
240.170142
 20
116.039218
 10
237.524312
 20
116.039218
  0
LWPOLYLINE
  5
73
100
AcDbEntity
  8
Layer 1
  6
ByLayer
 62
    7
370
   -1
100
AcDbPolyline
 90
    5
 70
    0
 43
0
 10
237.524312
 20
116.039218
 10
237.524312
 20
91.82987300000001
 10
240.170142
 20
91.82987300000001
 10
240.170142
 20
116.039218
 10
237.524312
 20
116.039218
  0
LWPOLYLINE
  5
74
100
AcDbEntity
  8
Layer 1
  6
ByLayer
 62
    7
370
   -1
100
AcDbPolyline
 90
   19
 70
    0
 43
0
 10
240.170142
 20
93.152788
 10
242.374884
 20
93.264118
 10
244.515939
 20
93.59088199999999
 10
246.582468
 20
94.122241
 10
248.563631
 20
94.84735499999999
 10
250.448589
 20
95.755387
 10
252.226503
 20
96.83549600000001
 10
253.886535
 20
98.07684500000001
 10
255.417845
 20
99.468593
 10
256.809595
 20
100.999903
 10
258.050944
 20
102.659934
 10
259.131055
 20
104.437849
 10
260.039087
 20
106.322807
 10
260.764203
 20
108.303971
 10
261.295562
 20
110.370501
 10
261.622326
 20
112.511558
 10
261.733656
 20
114.716303
 10
240.170142
 20
114.716303
 10
240.170142
 20
93.152788
  0
LWPOLYLINE
  5
75
100
AcDbEntity
  8
Layer 1
  6
ByLayer
 62
    7
370
   -1
100
AcDbPolyline
 90
    6
 70
    0
 43
0
 10
237.524199
 20
91.82987300000001
 10
237.524199
 20
116.039218
 10
240.170126
 20
116.039218
 10
240.170126
 20
91.82987300000001
 10
237.524199
 20
91.82987300000001
 10
237.524199
 20
91.82987300000001
  0
LWPOLYLINE
  5
76
100
AcDbEntity
  8
Layer 1
  6
ByLayer
 62
    7
370
   -1
100
AcDbPolyline
 90
    6
 70
    0
 43
0
 10
237.524199
 20
91.82987300000001
 10
237.524199
 20
116.039218
 10
240.170126
 20
116.039218
 10
240.170126
 20
91.82987300000001
 10
237.524199
 20
91.82987300000001
 10
237.524199
 20
91.82987300000001
  0
LWPOLYLINE
  5
77
100
AcDbEntity
  8
Layer 1
  6
ByLayer
 62
    7
370
   -1
100
AcDbPolyline
 90
    5
 70
    0
 43
0
 10
84.48468699999999
 20
6.951796
 10
84.48468800000001
 20
0.337221
 10
138.988783
 20
0.337221
 10
138.988782
 20
6.951796
 10
84.48468699999999
 20
6.951796
  0
LWPOLYLINE
  5
78
100
AcDbEntity
  8
Layer 1
  6
ByLayer
 62
    7
370
   -1
100
AcDbPolyline
 90
    5
 70
    0
 43
0
 10
84.48468699999999
 20
6.951796
 10
84.48468800000001
 20
0.337221
 10
138.988783
 20
0.337221
 10
138.988782
 20
6.951796
 10
84.48468699999999
 20
6.951796
  0
LWPOLYLINE
  5
79
100
AcDbEntity
  8
Layer 1
  6
ByLayer
 62
    7
370
   -1
100
AcDbPolyline
 90
   19
 70
    0
 43
0
 10
111.94319
 20
6.951844
 10
112.07856
 20
9.632664
 10
112.475882
 20
12.236043
 10
113.121979
 20
14.748803
 10
114.003669
 20
17.157763
 10
115.107774
 20
19.449745
 10
116.421114
 20
21.611568
 10
117.93051
 20
23.630054
 10
119.622782
 20
25.492023
 10
121.48475
 20
27.184295
 10
123.503235
 20
28.693691
 10
125.665058
 20
30.007032
 10
127.95704
 20
31.111138
 10
130.365999
 20
31.99283
 10
132.878758
 20
32.638928
 10
135.482137
 20
33.036253
 10
138.162955
 20
33.171625
 10
138.162963
 20
6.951844
 10
111.94319
 20
6.951844
  0
LWPOLYLINE
  5
7A
100
AcDbEntity
  8
Layer 1
  6
ByLayer
 62
    7
370
   -1
100
AcDbPolyline
 90
   19
 70
    0
 43
0
 10
111.53028
 20
6.951844
 10
111.39491
 20
9.632664
 10
110.997587
 20
12.236043
 10
110.35149
 20
14.748803
 10
109.4698
 20
17.157763
 10
108.365694
 20
19.449744
 10
107.052354
 20
21.611567
 10
105.542958
 20
23.630053
 10
103.850686
 20
25.492021
 10
101.988717
 20
27.184292
 10
99.970231
 20
28.693687
 10
97.808407
 20
30.007027
 10
95.516425
 20
31.111131
 10
93.107465
 20
31.992821
 10
90.594705
 20
32.638917
 10
87.991326
 20
33.03624
 10
85.310506
 20
33.171609
 10
85.310506
 20
6.951844
 10
111.53028
 20
6.951844
  0
LWPOLYLINE
  5
7B
100
AcDbEntity
  8
Layer 1
  6
ByLayer
 62
    7
370
   -1
100
AcDbPolyline
 90
    6
 70
    0
 43
0
 10
138.988784
 20
0.337124
 10
84.484686
 20
0.337124
 10
84.484686
 20
6.951844
 10
138.988784
 20
6.951844
 10
138.988784
 20
0.337124
 10
138.988784
 20
0.337124
  0
LWPOLYLINE
  5
7C
100
AcDbEntity
  8
Layer 1
  6
ByLayer
 62
    7
370
   -1
100
AcDbPolyline
 90
    6
 70
    0
 43
0
 10
138.988784
 20
0.337124
 10
84.484686
 20
0.337124
 10
84.484686
 20
6.951844
 10
138.988784
 20
6.951844
 10
138.988784
 20
0.337124
 10
138.988784
 20
0.337124
  0
LWPOLYLINE
  5
7D
100
AcDbEntity
  8
Layer 1
  6
ByLayer
 62
    7
370
   -1
100
AcDbPolyline
 90
    9
 70
    0
 43
0
 10
286.867653
 20
6.951808
 10
255.117692
 20
6.951802
 10
255.117693
 20
6.951802
 10
255.117693
 20
0.337227
 10
255.117693
 20
0.337227
 10
286.867653
 20
0.337232
 10
286.867653
 20
0.337232
 10
286.867653
 20
6.951808
 10
286.867653
 20
6.951808
  0
LWPOLYLINE
  5
7E
100
AcDbEntity
  8
Layer 1
  6
ByLayer
 62
    7
370
   -1
100
AcDbPolyline
 90
    5
 70
    0
 43
0
 10
255.117693
 20
0.337227
 10
255.117692
 20
0.337227
 10
255.117693
 20
0.337227
 10
255.117693
 20
0.337227
 10
255.117693
 20
0.337227
  0
LWPOLYLINE
  5
7F
100
AcDbEntity
  8
Layer 1
  6
ByLayer
 62
    7
370
   -1
100
AcDbPolyline
 90
    9
 70
    0
 43
0
 10
286.867653
 20
6.951808
 10
255.117692
 20
6.951802
 10
255.117693
 20
6.951802
 10
255.117693
 20
0.337227
 10
255.117693
 20
0.337227
 10
286.867653
 20
0.337232
 10
286.867653
 20
0.337232
 10
286.867653
 20
6.951808
 10
286.867653
 20
6.951808
  0
LWPOLYLINE
  5
80
100
AcDbEntity
  8
Layer 1
  6
ByLayer
 62
    7
370
   -1
100
AcDbPolyline
 90
    5
 70
    0
 43
0
 10
255.117693
 20
0.337227
 10
255.117692
 20
0.337227
 10
255.117693
 20
0.337227
 10
255.117693
 20
0.337227
 10
255.117693
 20
0.337227
  0
LWPOLYLINE
  5
81
100
AcDbEntity
  8
Layer 1
  6
ByLayer
 62
    7
370
   -1
100
AcDbPolyline
 90
   15
 70
    0
 43
0
 10
271.112933
 20
6.95186
 10
271.191789
 20
8.513503
 10
271.42324
 20
10.030035
 10
271.799607
 20
11.493779
 10
272.313213
 20
12.897057
 10
273.721435
 20
15.491508
 10
275.586486
 20
17.751969
 10
277.846946
 20
19.617019
 10
280.441397
 20
21.025241
 10
281.844675
 20
21.538847
 10
283.308419
 20
21.915214
 10
284.824951
 20
22.146665
 10
286.386594
 20
22.225521
 10
286.386594
 20
6.95186
 10
271.112933
 20
6.95186
  0
LWPOLYLINE
  5
82
100
AcDbEntity
  8
Layer 1
  6
ByLayer
 62
    7
370
   -1
100
AcDbPolyline
 90
   15
 70
    0
 43
0
 10
270.872412
 20
6.95186
 10
270.793556
 20
8.513503
 10
270.562105
 20
10.030034
 10
270.185738
 20
11.493777
 10
269.672132
 20
12.897055
 10
268.26391
 20
15.491503
 10
266.39886
 20
17.751961
 10
264.138399
 20
19.617008
 10
261.543948
 20
21.025227
 10
260.14067
 20
21.538833
 10
258.676926
 20
21.915199
 10
257.160394
 20
22.146649
 10
255.598751
 20
22.225505
 10
255.598751
 20
6.95186
 10
270.872412
 20
6.95186
  0
LWPOLYLINE
  5
83
100
AcDbEntity
  8
Layer 1
  6
ByLayer
 62
    7
370
   -1
100
AcDbPolyline
 90
    6
 70
    0
 43
0
 10
286.867653
 20
0.33714
 10
255.117693
 20
0.33714
 10
255.117693
 20
6.95186
 10
286.867653
 20
6.95186
 10
286.867653
 20
0.33714
 10
286.867653
 20
0.33714
  0
LWPOLYLINE
  5
84
100
AcDbEntity
  8
Layer 1
  6
ByLayer
 62
    7
370
   -1
100
AcDbPolyline
 90
    6
 70
    0
 43
0
 10
286.867653
 20
0.33714
 10
255.117693
 20
0.33714
 10
255.117693
 20
6.95186
 10
286.867653
 20
6.95186
 10
286.867653
 20
0.33714
 10
286.867653
 20
0.33714
  0
LWPOLYLINE
  5
85
100
AcDbEntity
  8
Layer 1
  6
ByLayer
 62
    7
370
   -1
100
AcDbPolyline
 90
    5
 70
    0
 43
0
 10
89.70940899999999
 20
237.668164
 10
89.70940899999999
 20
231.053589
 10
128.338527
 20
231.053589
 10
128.338527
 20
237.668164
 10
89.70940899999999
 20
237.668164
  0
LWPOLYLINE
  5
86
100
AcDbEntity
  8
Layer 1
  6
ByLayer
 62
    7
370
   -1
100
AcDbPolyline
 90
    5
 70
    0
 43
0
 10
89.70940899999999
 20
237.668164
 10
89.70940899999999
 20
231.053589
 10
128.338527
 20
231.053589
 10
128.338527
 20
237.668164
 10
89.70940899999999
 20
237.668164
  0
LWPOLYLINE
  5
87
100
AcDbEntity
  8
Layer 1
  6
ByLayer
 62
    7
370
   -1
100
AcDbPolyline
 90
   19
 70
    0
 43
0
 10
108.299675
 20
231.05352
 10
108.207435
 20
229.226828
 10
107.936702
 20
227.452904
 10
107.496456
 20
225.740727
 10
106.895679
 20
224.099279
 10
106.143349
 20
222.537538
 10
105.248448
 20
221.064487
 10
104.219956
 20
219.689105
 10
103.066853
 20
218.420372
 10
101.798121
 20
217.26727
 10
100.422739
 20
216.238778
 10
98.949687
 20
215.343877
 10
97.387947
 20
214.591547
 10
95.746498
 20
213.990769
 10
94.03432100000001
 20
213.550523
 10
92.260397
 20
213.27979
 10
90.433706
 20
213.18755
 10
90.433706
 20
231.05352
 10
108.299675
 20
231.05352
  0
LWPOLYLINE
  5
88
100
AcDbEntity
  8
Layer 1
  6
ByLayer
 62
    7
370
   -1
100
AcDbPolyline
 90
   19
 70
    0
 43
0
 10
109.748261
 20
231.05352
 10
109.8405
 20
229.226828
 10
110.111233
 20
227.452904
 10
110.551479
 20
225.740728
 10
111.152256
 20
224.099279
 10
111.904586
 20
222.537539
 10
112.799486
 20
221.064488
 10
113.827978
 20
219.689106
 10
114.98108
 20
218.420374
 10
116.249812
 20
217.267271
 10
117.625194
 20
216.238779
 10
119.098245
 20
215.343878
 10
120.659985
 20
214.591549
 10
122.301434
 20
213.990771
 10
124.01361
 20
213.550525
 10
125.787535
 20
213.279791
 10
127.614226
 20
213.18755
 10
127.614234
 20
231.05352
 10
109.748261
 20
231.05352
  0
LWPOLYLINE
  5
89
100
AcDbEntity
  8
Layer 1
  6
ByLayer
 62
    7
370
   -1
100
AcDbPolyline
 90
    6
 70
    0
 43
0
 10
89.70940899999999
 20
237.668262
 10
128.338527
 20
237.668262
 10
128.338527
 20
231.05352
 10
89.70940899999999
 20
231.05352
 10
89.70940899999999
 20
237.668262
 10
89.70940899999999
 20
237.668262
  0
LWPOLYLINE
  5
8A
100
AcDbEntity
  8
Layer 1
  6
ByLayer
 62
    7
370
   -1
100
AcDbPolyline
 90
    6
 70
    0
 43
0
 10
89.70940899999999
 20
237.668262
 10
128.338527
 20
237.668262
 10
128.338527
 20
231.05352
 10
89.70940899999999
 20
231.05352
 10
89.70940899999999
 20
237.668262
 10
89.70940899999999
 20
237.668262
  0
LWPOLYLINE
  5
8B
100
AcDbEntity
  8
Layer 1
  6
ByLayer
 62
    7
370
   -1
100
AcDbPolyline
 90
    5
 70
    0
 43
0
 10
252.545356
 20
237.668164
 10
252.545356
 20
231.053589
 10
294.34947
 20
231.053589
 10
294.34947
 20
237.668164
 10
252.545356
 20
237.668164
  0
LWPOLYLINE
  5
8C
100
AcDbEntity
  8
Layer 1
  6
ByLayer
 62
    7
370
   -1
100
AcDbPolyline
 90
    5
 70
    0
 43
0
 10
252.545356
 20
237.668164
 10
252.545356
 20
231.053589
 10
294.34947
 20
231.053589
 10
294.34947
 20
237.668164
 10
252.545356
 20
237.668164
  0
LWPOLYLINE
  5
8D
100
AcDbEntity
  8
Layer 1
  6
ByLayer
 62
    7
370
   -1
100
AcDbPolyline
 90
   19
 70
    0
 43
0
 10
272.663596
 20
231.05352
 10
272.563774
 20
229.07669
 10
272.270789
 20
227.156964
 10
271.794359
 20
225.304061
 10
271.144202
 20
223.527699
 10
270.330037
 20
221.837597
 10
269.361583
 20
220.243473
 10
268.248557
 20
218.755046
 10
267.000679
 20
217.382034
 10
265.627667
 20
216.134156
 10
264.13924
 20
215.021131
 10
262.545116
 20
214.052676
 10
260.855013
 20
213.238511
 10
259.078651
 20
212.588355
 10
257.225747
 20
212.111924
 10
255.30602
 20
211.818939
 10
253.32919
 20
211.719118
 10
253.32919
 20
231.05352
 10
272.663596
 20
231.05352
  0
LWPOLYLINE
  5
8E
100
AcDbEntity
  8
Layer 1
  6
ByLayer
 62
    7
370
   -1
100
AcDbPolyline
 90
   19
 70
    0
 43
0
 10
274.23123
 20
231.05352
 10
274.331052
 20
229.07669
 10
274.624037
 20
227.156964
 10
275.100467
 20
225.304061
 10
275.750624
 20
223.527699
 10
276.564789
 20
221.837597
 10
277.533243
 20
220.243473
 10
278.646269
 20
218.755046
 10
279.894147
 20
217.382034
 10
281.267159
 20
216.134156
 10
282.755586
 20
215.021131
 10
284.34971
 20
214.052676
 10
286.039813
 20
213.238511
 10
287.816176
 20
212.588355
 10
289.669079
 20
212.111924
 10
291.588806
 20
211.818939
 10
293.565636
 20
211.719118
 10
293.565636
 20
231.05352
 10
274.23123
 20
231.05352
  0
LWPOLYLINE
  5
8F
100
AcDbEntity
  8
Layer 1
  6
ByLayer
 62
    7
370
   -1
100
AcDbPolyline
 90
    6
 70
    0
 43
0
 10
252.545356
 20
237.668262
 10
294.34947
 20
237.668262
 10
294.34947
 20
231.05352
 10
252.545356
 20
231.05352
 10
252.545356
 20
237.668262
 10
252.545356
 20
237.668262
  0
LWPOLYLINE
  5
90
100
AcDbEntity
  8
Layer 1
  6
ByLayer
 62
    7
370
   -1
100
AcDbPolyline
 90
    6
 70
    0
 43
0
 10
252.545356
 20
237.668262
 10
294.34947
 20
237.668262
 10
294.34947
 20
231.05352
 10
252.545356
 20
231.05352
 10
252.545356
 20
237.668262
 10
252.545356
 20
237.668262
  0
LWPOLYLINE
  5
91
100
AcDbEntity
  8
Layer 1
  6
ByLayer
 62
    7
370
   -1
100
AcDbPolyline
 90
    5
 70
    0
 43
0
 10
173.879795
 20
237.668164
 10
173.879795
 20
231.053589
 10
212.773496
 20
231.053589
 10
212.773496
 20
237.668164
 10
173.879795
 20
237.668164
  0
LWPOLYLINE
  5
92
100
AcDbEntity
  8
Layer 1
  6
ByLayer
 62
    7
370
   -1
100
AcDbPolyline
 90
    5
 70
    0
 43
0
 10
173.879795
 20
237.668164
 10
173.879795
 20
231.053589
 10
212.773496
 20
231.053589
 10
212.773496
 20
237.668164
 10
173.879795
 20
237.668164
  0
LWPOLYLINE
  5
93
100
AcDbEntity
  8
Layer 1
  6
ByLayer
 62
    7
370
   -1
100
AcDbPolyline
 90
   19
 70
    0
 43
0
 10
192.597395
 20
231.05352
 10
192.504523
 20
229.214317
 10
192.231935
 20
227.428242
 10
191.788674
 20
225.704338
 10
191.183781
 20
224.051647
 10
190.426297
 20
222.47921
 10
189.525266
 20
220.996069
 10
188.489729
 20
219.611267
 10
187.328728
 20
218.333844
 10
186.051305
 20
217.172844
 10
184.666502
 20
216.137308
 10
183.183361
 20
215.236278
 10
181.610924
 20
214.478795
 10
179.958232
 20
213.873902
 10
178.234329
 20
213.430641
 10
176.448255
 20
213.158054
 10
174.609053
 20
213.065182
 10
174.609053
 20
231.05352
 10
192.597395
 20
231.05352
  0
LWPOLYLINE
  5
94
100
AcDbEntity
  8
Layer 1
  6
ByLayer
 62
    7
370
   -1
100
AcDbPolyline
 90
   19
 70
    0
 43
0
 10
194.055896
 20
231.05352
 10
194.148768
 20
229.214317
 10
194.421355
 20
227.428242
 10
194.864616
 20
225.704338
 10
195.469508
 20
224.051647
 10
196.22699
 20
222.47921
 10
197.12802
 20
220.996069
 10
198.163556
 20
219.611267
 10
199.324556
 20
218.333844
 10
200.601978
 20
217.172844
 10
201.98678
 20
216.137308
 10
203.46992
 20
215.236278
 10
205.042357
 20
214.478795
 10
206.695048
 20
213.873902
 10
208.418952
 20
213.430641
 10
210.205026
 20
213.158054
 10
212.044229
 20
213.065182
 10
212.044245
 20
231.05352
 10
194.055896
 20
231.05352
  0
LWPOLYLINE
  5
95
100
AcDbEntity
  8
Layer 1
  6
ByLayer
 62
    7
370
   -1
100
AcDbPolyline
 90
    6
 70
    0
 43
0
 10
173.879795
 20
237.668262
 10
212.773496
 20
237.668262
 10
212.773496
 20
231.05352
 10
173.879795
 20
231.05352
 10
173.879795
 20
237.668262
 10
173.879795
 20
237.668262
  0
LWPOLYLINE
  5
96
100
AcDbEntity
  8
Layer 1
  6
ByLayer
 62
    7
370
   -1
100
AcDbPolyline
 90
    6
 70
    0
 43
0
 10
173.879795
 20
237.668262
 10
212.773496
 20
237.668262
 10
212.773496
 20
231.05352
 10
173.879795
 20
231.05352
 10
173.879795
 20
237.668262
 10
173.879795
 20
237.668262
  0
LWPOLYLINE
  5
97
100
AcDbEntity
  8
Layer 1
  6
ByLayer
 62
    7
370
   -1
100
AcDbPolyline
 90
    5
 70
    0
 43
0
 10
173.657796
 20
6.951796
 10
173.657796
 20
0.337221
 10
204.084841
 20
0.337221
 10
204.084841
 20
6.951796
 10
173.657796
 20
6.951796
  0
LWPOLYLINE
  5
98
100
AcDbEntity
  8
Layer 1
  6
ByLayer
 62
    7
370
   -1
100
AcDbPolyline
 90
    5
 70
    0
 43
0
 10
173.657796
 20
6.951796
 10
173.657796
 20
0.337221
 10
204.084841
 20
0.337221
 10
204.084841
 20
6.951796
 10
173.657796
 20
6.951796
  0
LWPOLYLINE
  5
99
100
AcDbEntity
  8
Layer 1
  6
ByLayer
 62
    7
370
   -1
100
AcDbPolyline
 90
    6
 70
    0
 43
0
 10
204.084841
 20
0.337124
 10
173.657796
 20
0.337124
 10
173.657796
 20
6.951892
 10
204.084841
 20
6.951892
 10
204.084841
 20
0.337124
 10
204.084841
 20
0.337124
  0
LWPOLYLINE
  5
9A
100
AcDbEntity
  8
Layer 1
  6
ByLayer
 62
    7
370
   -1
100
AcDbPolyline
 90
    6
 70
    0
 43
0
 10
204.084841
 20
0.337124
 10
173.657796
 20
0.337124
 10
173.657796
 20
6.951892
 10
204.084841
 20
6.951892
 10
204.084841
 20
0.337124
 10
204.084841
 20
0.337124
  0
LWPOLYLINE
  5
9B
100
AcDbEntity
  8
Layer 1
  6
ByLayer
 62
    7
370
   -1
100
AcDbPolyline
 90
    2
 70
    0
 43
0
 10
32.3411
 20
7.61418
 10
32.3411
 20
120.326538
  0
LWPOLYLINE
  5
9C
100
AcDbEntity
  8
Layer 1
  6
ByLayer
 62
    7
370
   -1
100
AcDbPolyline
 90
    2
 70
    0
 43
0
 10
33.664015
 20
6.291265
 10
31.018185
 20
8.937094999999999
  0
LWPOLYLINE
  5
9D
100
AcDbEntity
  8
Layer 1
  6
ByLayer
 62
    7
370
   -1
100
AcDbPolyline
 90
    2
 70
    0
 43
0
 10
33.664015
 20
7.61418
 10
31.018185
 20
7.61418
  0
LWPOLYLINE
  5
9E
100
AcDbEntity
  8
Layer 1
  6
ByLayer
 62
    7
370
   -1
100
AcDbPolyline
 90
    2
 70
    0
 43
0
 10
33.664015
 20
119.004085
 10
31.018185
 20
121.649915
  0
LWPOLYLINE
  5
9F
100
AcDbEntity
  8
Layer 1
  6
ByLayer
 62
    7
370
   -1
100
AcDbPolyline
 90
    2
 70
    0
 43
0
 10
33.664015
 20
120.327
 10
31.018185
 20
120.327
  0
LWPOLYLINE
  5
A0
100
AcDbEntity
  8
Layer 1
  6
ByLayer
 62
    7
370
   -1
100
AcDbPolyline
 90
    2
 70
    0
 43
0
 10
80.237543
 20
7.61418
 10
32.3411
 20
7.61418
  0
LWPOLYLINE
  5
A1
100
AcDbEntity
  8
Layer 1
  6
ByLayer
 62
    7
370
   -1
100
AcDbPolyline
 90
    2
 70
    0
 43
0
 10
80.237543
 20
120.326538
 10
32.3411
 20
120.326538
  0
LWPOLYLINE
  5
A2
100
AcDbEntity
  8
Layer 1
  6
ByLayer
 62
    7
370
   -1
100
AcDbPolyline
 90
   13
 70
    0
 43
0
 10
29.827576
 20
62.551166
 10
29.827576
 20
62.141889
 10
31.0182
 20
62.141889
 10
31.0182
 20
61.695405
 10
29.827576
 20
61.695405
 10
29.827576
 20
60.165785
 10
29.339752
 20
60.165785
 10
27.553816
 20
61.711941
 10
27.553816
 20
62.141889
 10
29.455507
 20
62.141889
 10
29.455507
 20
62.551166
 10
29.827576
 20
62.551166
 10
29.827576
 20
62.551166
  0
LWPOLYLINE
  5
A3
100
AcDbEntity
  8
Layer 1
  6
ByLayer
 62
    7
370
   -1
100
AcDbPolyline
 90
    5
 70
    0
 43
0
 10
29.455507
 20
61.695405
 10
28.103653
 20
61.695405
 10
29.455507
 20
60.525452
 10
29.455507
 20
61.695405
 10
29.455507
 20
61.695405
  0
LWPOLYLINE
  5
A4
100
AcDbEntity
  8
Layer 1
  6
ByLayer
 62
    7
370
   -1
100
AcDbPolyline
 90
   32
 70
    0
 43
0
 10
31.0182
 20
65.060053
 10
31.0182
 20
62.922719
 10
30.530375
 20
62.922719
 10
30.114897
 20
63.358867
 10
29.695285
 20
63.757809
 10
29.000755
 20
64.29937700000001
 10
28.459186
 20
64.44407099999999
 10
28.204939
 20
64.398596
 10
28.025105
 20
64.27457200000001
 10
27.919685
 20
64.08440299999999
 10
27.884545
 20
63.848759
 10
27.915551
 20
63.598646
 10
27.996166
 20
63.3568
 10
28.089184
 20
63.166631
 10
28.186335
 20
63.021937
 10
28.186335
 20
62.997133
 10
27.694376
 20
62.997133
 10
27.551749
 20
63.398141
 10
27.483536
 20
63.885966
 10
27.547615
 20
64.316947
 10
27.739851
 20
64.64250800000001
 10
28.042675
 20
64.84714700000001
 10
28.438516
 20
64.915359
 10
28.812653
 20
64.867817
 10
29.128912
 20
64.737593
 10
29.430702
 20
64.53088700000001
 10
29.724224
 20
64.27457200000001
 10
30.216183
 20
63.786748
 10
30.621326
 20
63.360934
 10
30.621326
 20
65.060053
 10
31.0182
 20
65.060053
 10
31.0182
 20
65.060053
  0
LWPOLYLINE
  5
A5
100
AcDbEntity
  8
Layer 1
  6
ByLayer
 62
    7
370
   -1
100
AcDbPolyline
 90
   30
 70
    0
 43
0
 10
29.893722
 20
67.713635
 10
30.387748
 20
67.624751
 10
30.766019
 20
67.38704
 10
31.005798
 20
67.03977500000001
 10
31.08848
 20
66.613962
 10
31.009932
 20
66.188148
 10
30.774288
 20
65.84915100000001
 10
30.271993
 20
65.570099
 10
29.496848
 20
65.468813
 10
28.682428
 20
65.561831
 10
28.049909
 20
65.84915100000001
 10
27.638566
 20
66.332842
 10
27.491805
 20
67.02323800000001
 10
27.50214
 20
67.238212
 10
27.53728
 20
67.41597899999999
 10
27.983764
 20
67.41597899999999
 10
27.983764
 20
67.395308
 10
27.917618
 20
67.21134000000001
 10
27.888679
 20
66.957093
 10
27.96206
 20
66.56797
 10
28.182201
 20
66.26049500000001
 10
28.546003
 20
66.04810500000001
 10
29.050364
 20
65.944236
 10
28.868463
 20
66.283233
 10
28.806451
 20
66.667705
 10
28.847793
 20
67.019104
 10
29.013157
 20
67.337431
 10
29.374892
 20
67.620617
 10
29.893722
 20
67.713635
 10
29.893722
 20
67.713635
  0
LWPOLYLINE
  5
A6
100
AcDbEntity
  8
Layer 1
  6
ByLayer
 62
    7
370
   -1
100
AcDbPolyline
 90
   16
 70
    0
 43
0
 10
29.914393
 20
67.242346
 10
29.554725
 20
67.186536
 10
29.310813
 20
67.006702
 10
29.211594
 20
66.799997
 10
29.18679
 20
66.564352
 10
29.236399
 20
66.246026
 10
29.376959
 20
65.944236
 10
29.478244
 20
65.938035
 10
29.596066
 20
65.935968
 10
30.176909
 20
66.006248
 10
30.513839
 20
66.184014
 10
30.666801
 20
66.38865300000001
 10
30.712276
 20
66.61809599999999
 10
30.511772
 20
67.068714
 10
29.914393
 20
67.242346
 10
29.914393
 20
67.242346
  0
LWPOLYLINE
  5
A7
100
AcDbEntity
  8
Layer 1
  6
ByLayer
 62
    7
370
   -1
100
AcDbPolyline
 90
    2
 70
    0
 43
0
 10
338.751
 20
122.699
 10
338.751
 20
231.17803
  0
LWPOLYLINE
  5
A8
100
AcDbEntity
  8
Layer 1
  6
ByLayer
 62
    7
370
   -1
100
AcDbPolyline
 90
    2
 70
    0
 43
0
 10
340.073915
 20
121.376085
 10
337.428085
 20
124.021915
  0
LWPOLYLINE
  5
A9
100
AcDbEntity
  8
Layer 1
  6
ByLayer
 62
    7
370
   -1
100
AcDbPolyline
 90
    2
 70
    0
 43
0
 10
340.073915
 20
122.699
 10
337.428085
 20
122.699
  0
LWPOLYLINE
  5
AA
100
AcDbEntity
  8
Layer 1
  6
ByLayer
 62
    7
370
   -1
100
AcDbPolyline
 90
    2
 70
    0
 43
0
 10
340.073915
 20
229.855085
 10
337.428085
 20
232.500915
  0
LWPOLYLINE
  5
AB
100
AcDbEntity
  8
Layer 1
  6
ByLayer
 62
    7
370
   -1
100
AcDbPolyline
 90
    2
 70
    0
 43
0
 10
340.073915
 20
231.178
 10
337.428085
 20
231.178
  0
LWPOLYLINE
  5
AC
100
AcDbEntity
  8
Layer 1
  6
ByLayer
 62
    7
370
   -1
100
AcDbPolyline
 90
    2
 70
    0
 43
0
 10
310.507249
 20
122.699
 10
338.751
 20
122.699
  0
LWPOLYLINE
  5
AD
100
AcDbEntity
  8
Layer 1
  6
ByLayer
 62
    7
370
   -1
100
AcDbPolyline
 90
    2
 70
    0
 43
0
 10
310.507249
 20
231.17803
 10
338.751
 20
231.17803
  0
LWPOLYLINE
  5
AE
100
AcDbEntity
  8
Layer 1
  6
ByLayer
 62
    7
370
   -1
100
AcDbPolyline
 90
   13
 70
    0
 43
0
 10
342.587377
 20
175.519466
 10
342.587377
 20
175.110189
 10
343.778
 20
175.110189
 10
343.778
 20
174.663705
 10
342.587377
 20
174.663705
 10
342.587377
 20
173.134085
 10
342.099552
 20
173.134085
 10
340.313616
 20
174.680241
 10
340.313616
 20
175.110189
 10
342.215307
 20
175.110189
 10
342.215307
 20
175.519466
 10
342.587377
 20
175.519466
 10
342.587377
 20
175.519466
  0
LWPOLYLINE
  5
AF
100
AcDbEntity
  8
Layer 1
  6
ByLayer
 62
    7
370
   -1
100
AcDbPolyline
 90
    5
 70
    0
 43
0
 10
342.215307
 20
174.663705
 10
340.863453
 20
174.663705
 10
342.215307
 20
173.493752
 10
342.215307
 20
174.663705
 10
342.215307
 20
174.663705
  0
LWPOLYLINE
  5
B0
100
AcDbEntity
  8
Layer 1
  6
ByLayer
 62
    7
370
   -1
100
AcDbPolyline
 90
   14
 70
    0
 43
0
 10
343.778
 20
177.854721
 10
343.778
 20
176.16387
 10
343.422467
 20
176.16387
 10
343.422467
 20
176.792255
 10
341.103231
 20
176.792255
 10
341.103231
 20
176.16387
 10
340.789039
 20
176.16387
 10
340.687753
 20
176.688902
 10
340.305348
 20
176.879071
 10
340.305348
 20
177.238738
 10
343.422467
 20
177.238738
 10
343.422467
 20
177.854721
 10
343.778
 20
177.854721
 10
343.778
 20
177.854721
  0
LWPOLYLINE
  5
B1
100
AcDbEntity
  8
Layer 1
  6
ByLayer
 62
    7
370
   -1
100
AcDbPolyline
 90
   18
 70
    0
 43
0
 10
342.045808
 20
180.644728
 10
342.852476
 20
180.577032
 10
343.412131
 20
180.373944
 10
343.739243
 20
180.029262
 10
343.84828
 20
179.536786
 10
343.737692
 20
179.042244
 10
343.40593
 20
178.699629
 10
342.845758
 20
178.499642
 10
342.049942
 20
178.432979
 10
341.238107
 20
178.500675
 10
340.679485
 20
178.703763
 10
340.355474
 20
179.047411
 10
340.247471
 20
179.536786
 10
340.359608
 20
180.03443
 10
340.696021
 20
180.378078
 10
341.257744
 20
180.578065
 10
342.045808
 20
180.644728
 10
342.045808
 20
180.644728
  0
LWPOLYLINE
  5
B2
100
AcDbEntity
  8
Layer 1
  6
ByLayer
 62
    7
370
   -1
100
AcDbPolyline
 90
   18
 70
    0
 43
0
 10
343.100006
 20
180.049416
 10
342.667992
 20
180.146568
 10
342.045808
 20
180.173439
 10
341.427759
 20
180.146568
 10
340.99161
 20
180.049416
 10
340.720826
 20
179.85718
 10
340.627809
 20
179.536786
 10
340.720826
 20
179.222594
 10
340.995744
 20
179.024157
 10
341.440161
 20
178.929072
 10
342.049942
 20
178.904268
 10
342.657656
 20
178.927005
 10
343.095872
 20
179.024157
 10
343.37079
 20
179.214326
 10
343.467942
 20
179.536786
 10
343.374924
 20
179.855113
 10
343.100006
 20
180.049416
 10
343.100006
 20
180.049416
  0
LWPOLYLINE
  5
B3
100
AcDbEntity
  8
Layer 1
  6
ByLayer
 62
    7
370
   -1
100
AcDbPolyline
 90
   38
 70
    0
 43
0
 10
262.30776
 20
74.003018
 10
261.474737
 20
74.153913
 10
260.819481
 20
74.60659800000001
 10
260.3916
 20
75.356939
 10
260.240705
 20
76.38839900000001
 10
260.387466
 20
77.401256
 10
260.815347
 20
78.14953
 10
261.470603
 20
78.622885
 10
262.316028
 20
78.786182
 10
262.752177
 20
78.75310899999999
 10
263.130448
 20
78.666293
 10
263.434305
 20
78.550538
 10
263.742296
 20
78.397576
 10
263.742296
 20
77.653436
 10
263.692687
 20
77.653436
 10
263.485981
 20
77.83327
 10
263.175923
 20
78.04204300000001
 10
262.791451
 20
78.199139
 10
262.311894
 20
78.26115
 10
261.751722
 20
78.141261
 10
261.290769
 20
77.78572800000001
 10
260.986912
 20
77.192483
 10
260.877358
 20
76.38839900000001
 10
260.993113
 20
75.57397899999999
 10
261.307306
 20
74.995204
 10
261.757924
 20
74.64793899999999
 10
262.311894
 20
74.532184
 10
262.803853
 20
74.59833
 10
263.204862
 20
74.763694
 10
263.502518
 20
74.960064
 10
263.696821
 20
75.13163
 10
263.742296
 20
75.13163
 10
263.742296
 20
74.39989199999999
 10
263.454976
 20
74.26346700000001
 10
263.130448
 20
74.13530900000001
 10
262.756311
 20
74.036091
 10
262.30776
 20
74.003018
 10
262.30776
 20
74.003018
  0
LWPOLYLINE
  5
B4
100
AcDbEntity
  8
Layer 1
  6
ByLayer
 62
    7
370
   -1
100
AcDbPolyline
 90
   22
 70
    0
 43
0
 10
266.993773
 20
74.0857
 10
266.410864
 20
74.0857
 10
266.410864
 20
76.05767
 10
266.386059
 20
76.504154
 10
266.299243
 20
76.834883
 10
266.098738
 20
77.027119
 10
265.75354
 20
77.09119800000001
 10
265.302922
 20
76.975442
 10
264.852304
 20
76.673652
 10
264.852304
 20
74.0857
 10
264.269395
 20
74.0857
 10
264.269395
 20
78.910206
 10
264.852304
 20
78.910206
 10
264.852304
 20
77.165611
 10
265.367001
 20
77.521145
 10
265.902368
 20
77.645168
 10
266.359187
 20
77.560936
 10
266.704385
 20
77.308238
 10
266.921426
 20
76.896378
 10
266.993773
 20
76.334655
 10
266.993773
 20
74.0857
 10
266.993773
 20
74.0857
  0
LWPOLYLINE
  5
B5
100
AcDbEntity
  8
Layer 1
  6
ByLayer
 62
    7
370
   -1
100
AcDbPolyline
 90
   11
 70
    0
 43
0
 10
269.745023
 20
74.937327
 10
269.745023
 20
75.90057400000001
 10
269.219991
 20
75.84889800000001
 10
268.707361
 20
75.75588
 10
268.322889
 20
75.538839
 10
268.169927
 20
75.12749599999999
 10
268.337359
 20
74.678945
 10
268.827251
 20
74.52804999999999
 10
269.327478
 20
74.645872
 10
269.745023
 20
74.937327
 10
269.745023
 20
74.937327
  0
LWPOLYLINE
  5
B6
100
AcDbEntity
  8
Layer 1
  6
ByLayer
 62
    7
370
   -1
100
AcDbPolyline
 90
   32
 70
    0
 43
0
 10
269.745023
 20
74.453636
 10
269.554854
 20
74.308942
 10
269.323344
 20
74.15598
 10
269.025688
 20
74.034024
 10
268.620545
 20
73.99061500000001
 10
268.213335
 20
74.071231
 10
267.876405
 20
74.29653999999999
 10
267.653164
 20
74.650006
 10
267.570481
 20
75.090289
 10
267.721376
 20
75.70213699999999
 10
268.203
 20
76.103145
 10
268.889262
 20
76.28918
 10
269.745023
 20
76.36359400000001
 10
269.745023
 20
76.47521500000001
 10
269.683011
 20
76.80801099999999
 10
269.509379
 20
77.000247
 10
269.236527
 20
77.095332
 10
268.905799
 20
77.120136
 10
268.430376
 20
77.058125
 10
267.884674
 20
76.88449199999999
 10
267.851601
 20
76.88449199999999
 10
267.851601
 20
77.47566999999999
 10
268.312554
 20
77.576955
 10
268.909933
 20
77.632766
 10
269.509379
 20
77.576955
 10
269.951728
 20
77.376451
 10
270.230781
 20
77.00644800000001
 10
270.323798
 20
76.454545
 10
270.323798
 20
74.0857
 10
269.745023
 20
74.0857
 10
269.745023
 20
74.453636
 10
269.745023
 20
74.453636
  0
LWPOLYLINE
  5
B7
100
AcDbEntity
  8
Layer 1
  6
ByLayer
 62
    7
370
   -1
100
AcDbPolyline
 90
   37
 70
    0
 43
0
 10
275.074923
 20
74.0857
 10
275.074923
 20
76.090743
 10
275.05632
 20
76.531026
 10
274.979839
 20
76.847285
 10
274.802072
 20
77.03125300000001
 10
274.492014
 20
77.09119800000001
 10
274.107542
 20
76.981644
 10
273.681729
 20
76.66125
 10
273.68793
 20
76.537227
 10
273.694131
 20
76.36359400000001
 10
273.694131
 20
74.0857
 10
273.111221
 20
74.0857
 10
273.111221
 20
76.090743
 10
273.092618
 20
76.531026
 10
273.012003
 20
76.847285
 10
272.836303
 20
77.03125300000001
 10
272.528312
 20
77.09119800000001
 10
272.129371
 20
76.973375
 10
271.726295
 20
76.673652
 10
271.726295
 20
74.0857
 10
271.143385
 20
74.0857
 10
271.143385
 20
77.550084
 10
271.726295
 20
77.550084
 10
271.726295
 20
77.165611
 10
272.181047
 20
77.51907799999999
 10
272.67714
 20
77.645168
 10
273.220775
 20
77.506676
 10
273.58251
 20
77.045722
 10
274.09514
 20
77.49427300000001
 10
274.640842
 20
77.645168
 10
275.048052
 20
77.574888
 10
275.368445
 20
77.351646
 10
275.581352
 20
76.958906
 10
275.657833
 20
76.36359400000001
 10
275.657833
 20
74.0857
 10
275.074923
 20
74.0857
 10
275.074923
 20
74.0857
  0
LWPOLYLINE
  5
B8
100
AcDbEntity
  8
Layer 1
  6
ByLayer
 62
    7
370
   -1
100
AcDbPolyline
 90
   14
 70
    0
 43
0
 10
278.779085
 20
75.83029399999999
 10
278.590983
 20
76.770804
 10
278.345521
 20
77.011099
 10
277.985336
 20
77.09119800000001
 10
277.501646
 20
76.97957700000001
 10
277.059296
 20
76.698457
 10
277.059296
 20
74.714085
 10
277.449969
 20
74.559056
 10
277.824106
 20
74.515647
 10
278.222531
 20
74.594712
 10
278.524838
 20
74.831907
 10
278.715524
 20
75.239633
 10
278.779085
 20
75.83029399999999
 10
278.779085
 20
75.83029399999999
  0
LWPOLYLINE
  5
B9
100
AcDbEntity
  8
Layer 1
  6
ByLayer
 62
    7
370
   -1
100
AcDbPolyline
 90
   19
 70
    0
 43
0
 10
279.382665
 20
75.87576900000001
 10
279.279313
 20
75.107859
 10
278.969254
 20
74.507379
 10
278.504167
 20
74.119806
 10
277.935727
 20
73.99061500000001
 10
277.454103
 20
74.060895
 10
277.059296
 20
74.24693000000001
 10
277.022089
 20
74.0857
 10
276.476387
 20
74.0857
 10
276.476387
 20
78.910206
 10
277.059296
 20
78.910206
 10
277.059296
 20
77.18628200000001
 10
277.536786
 20
77.514944
 10
278.121762
 20
77.645168
 10
278.643693
 20
77.527863
 10
279.043668
 20
77.17594699999999
 10
279.297916
 20
76.616292
 10
279.382665
 20
75.87576900000001
 10
279.382665
 20
75.87576900000001
  0
LWPOLYLINE
  5
BA
100
AcDbEntity
  8
Layer 1
  6
ByLayer
 62
    7
370
   -1
100
AcDbPolyline
 90
   17
 70
    0
 43
0
 10
281.82179
 20
76.921699
 10
281.792851
 20
76.921699
 10
281.654359
 20
76.946504
 10
281.478659
 20
76.950638
 10
281.009437
 20
76.849352
 10
280.569155
 20
76.545495
 10
280.569155
 20
74.0857
 10
279.986245
 20
74.0857
 10
279.986245
 20
77.550084
 10
280.569155
 20
77.550084
 10
280.569155
 20
77.03332
 10
281.125193
 20
77.43432900000001
 10
281.586146
 20
77.550084
 10
281.722571
 20
77.54595
 10
281.82179
 20
77.52941300000001
 10
281.82179
 20
76.921699
 10
281.82179
 20
76.921699
  0
LWPOLYLINE
  5
BB
100
AcDbEntity
  8
Layer 1
  6
ByLayer
 62
    7
370
   -1
100
AcDbPolyline
 90
   30
 70
    0
 43
0
 10
283.779291
 20
74.003018
 10
283.044453
 20
74.119806
 10
282.493583
 20
74.47017200000001
 10
282.149418
 20
75.035512
 10
282.034697
 20
75.79722099999999
 10
282.145801
 20
76.557897
 10
282.479113
 20
77.144941
 10
282.991226
 20
77.520111
 10
283.638731
 20
77.645168
 10
284.209238
 20
77.55215099999999
 10
284.64332
 20
77.260696
 10
284.928573
 20
76.77493800000001
 10
285.027792
 20
76.074207
 10
285.027792
 20
75.75588
 10
282.630008
 20
75.75588
 10
282.705973
 20
75.223614
 10
282.933865
 20
74.833974
 10
283.295083
 20
74.595229
 10
283.771023
 20
74.515647
 10
284.149294
 20
74.559056
 10
284.482089
 20
74.668609
 10
284.748739
 20
74.807102
 10
284.928573
 20
74.93319200000001
 10
284.961646
 20
74.93319200000001
 10
284.961646
 20
74.29653999999999
 10
284.709465
 20
74.19525400000001
 10
284.436614
 20
74.102236
 10
284.128623
 20
74.027822
 10
283.779291
 20
74.003018
 10
283.779291
 20
74.003018
  0
LWPOLYLINE
  5
BC
100
AcDbEntity
  8
Layer 1
  6
ByLayer
 62
    7
370
   -1
100
AcDbPolyline
 90
   11
 70
    0
 43
0
 10
284.461419
 20
76.202364
 10
284.403541
 20
76.60957399999999
 10
284.262982
 20
76.896894
 10
284.000466
 20
77.097399
 10
283.605658
 20
77.165611
 10
283.210851
 20
77.095332
 10
282.915262
 20
76.89276
 10
282.714758
 20
76.59097
 10
282.630008
 20
76.202364
 10
284.461419
 20
76.202364
 10
284.461419
 20
76.202364
  0
LWPOLYLINE
  5
BD
100
AcDbEntity
  8
Layer 1
  6
ByLayer
 62
    7
370
   -1
100
AcDbPolyline
 90
   49
 70
    0
 43
0
 10
288.76296
 20
78.26115
 10
288.430164
 20
78.22187599999999
 10
288.101502
 20
78.116457
 10
287.84312
 20
77.986232
 10
287.64675
 20
77.860142
 10
287.609543
 20
77.860142
 10
287.609543
 20
78.51333099999999
 10
288.155245
 20
78.709701
 10
288.812569
 20
78.798585
 10
289.360338
 20
78.734506
 10
289.784085
 20
78.53813599999999
 10
290.094143
 20
78.178468
 10
290.197496
 20
77.686509
 10
289.945315
 20
77.016784
 10
289.345869
 20
76.648848
 10
289.345869
 20
76.607507
 10
289.655927
 20
76.510355
 10
289.965985
 20
76.30985099999999
 10
290.197496
 20
75.96672
 10
290.288446
 20
75.458224
 10
290.180959
 20
74.881516
 10
289.879169
 20
74.41642899999999
 10
289.391344
 20
74.098102
 10
288.742289
 20
73.99061500000001
 10
288.05396
 20
74.07329799999999
 10
287.481386
 20
74.275869
 10
287.481386
 20
74.929058
 10
287.522727
 20
74.929058
 10
288.049826
 20
74.65827400000001
 10
288.705082
 20
74.52804999999999
 10
289.08542
 20
74.58799399999999
 10
289.403747
 20
74.784364
 10
289.591849
 20
75.084087
 10
289.655927
 20
75.499565
 10
289.58358
 20
75.912976
 10
289.383076
 20
76.16515699999999
 10
289.073018
 20
76.29538100000001
 10
288.688546
 20
76.330521
 10
288.423963
 20
76.330521
 10
288.423963
 20
76.847285
 10
288.626534
 20
76.847285
 10
289.308662
 20
77.045722
 10
289.503999
 20
77.288601
 10
289.569111
 20
77.620364
 10
289.500898
 20
77.920086
 10
289.329333
 20
78.120591
 10
289.066817
 20
78.23014499999999
 10
288.76296
 20
78.26115
 10
288.76296
 20
78.26115
  0
LWPOLYLINE
  5
BE
100
AcDbEntity
  8
Layer 1
  6
ByLayer
 62
    7
370
   -1
100
AcDbPolyline
 90
   14
 70
    0
 43
0
 10
265.172754
 20
63.5024
 10
262.923799
 20
63.5024
 10
262.923799
 20
63.973688
 10
263.758889
 20
63.973688
 10
263.758889
 20
67.07013600000001
 10
262.923799
 20
67.07013600000001
 10
262.923799
 20
67.491816
 10
263.620396
 20
67.62617400000001
 10
263.874644
 20
68.136737
 10
264.3542
 20
68.136737
 10
264.3542
 20
63.973688
 10
265.172754
 20
63.973688
 10
265.172754
 20
63.5024
 10
265.172754
 20
63.5024
  0
LWPOLYLINE
  5
BF
100
AcDbEntity
  8
Layer 1
  6
ByLayer
 62
    7
370
   -1
100
AcDbPolyline
 90
   14
 70
    0
 43
0
 10
268.639205
 20
63.5024
 10
266.390249
 20
63.5024
 10
266.390249
 20
63.973688
 10
267.225339
 20
63.973688
 10
267.225339
 20
67.07013600000001
 10
266.390249
 20
67.07013600000001
 10
266.390249
 20
67.491816
 10
267.086847
 20
67.62617400000001
 10
267.341094
 20
68.136737
 10
267.820651
 20
68.136737
 10
267.820651
 20
63.973688
 10
268.639205
 20
63.973688
 10
268.639205
 20
63.5024
 10
268.639205
 20
63.5024
  0
LWPOLYLINE
  5
C0
100
AcDbEntity
  8
Layer 1
  6
ByLayer
 62
    7
370
   -1
100
AcDbPolyline
 90
    6
 70
    0
 43
0
 10
270.704192
 20
64.38709900000001
 10
269.836029
 20
62.353118
 10
269.385412
 20
62.353118
 10
269.931114
 20
64.38709900000001
 10
270.704192
 20
64.38709900000001
 10
270.704192
 20
64.38709900000001
  0
LWPOLYLINE
  5
C1
100
AcDbEntity
  8
Layer 1
  6
ByLayer
 62
    7
370
   -1
100
AcDbPolyline
 90
   49
 70
    0
 43
0
 10
272.659626
 20
67.67785000000001
 10
272.32683
 20
67.638576
 10
271.998169
 20
67.533157
 10
271.739787
 20
67.40293200000001
 10
271.543417
 20
67.276842
 10
271.50621
 20
67.276842
 10
271.50621
 20
67.930031
 10
272.051912
 20
68.126401
 10
272.709235
 20
68.21528499999999
 10
273.257005
 20
68.151206
 10
273.680751
 20
67.954836
 10
273.990809
 20
67.595168
 10
274.094162
 20
67.10320900000001
 10
273.841981
 20
66.43348400000001
 10
273.242536
 20
66.06554800000001
 10
273.242536
 20
66.024207
 10
273.552594
 20
65.927055
 10
273.862652
 20
65.726551
 10
274.094162
 20
65.38342
 10
274.185113
 20
64.87492399999999
 10
274.077626
 20
64.298216
 10
273.775836
 20
63.833129
 10
273.288011
 20
63.514802
 10
272.638956
 20
63.407315
 10
271.950626
 20
63.489998
 10
271.378052
 20
63.692569
 10
271.378052
 20
64.345758
 10
271.419393
 20
64.345758
 10
271.946492
 20
64.074974
 10
272.601749
 20
63.94475
 10
272.982087
 20
64.004694
 10
273.300413
 20
64.201064
 10
273.488515
 20
64.500787
 10
273.552594
 20
64.916265
 10
273.480247
 20
65.32967600000001
 10
273.279743
 20
65.581857
 10
272.969684
 20
65.712081
 10
272.585212
 20
65.747221
 10
272.320629
 20
65.747221
 10
272.320629
 20
66.26398500000001
 10
272.523201
 20
66.26398500000001
 10
273.205329
 20
66.462422
 10
273.400665
 20
66.70530100000001
 10
273.465778
 20
67.037064
 10
273.397565
 20
67.336786
 10
273.225999
 20
67.537291
 10
272.963483
 20
67.646845
 10
272.659626
 20
67.67785000000001
 10
272.659626
 20
67.67785000000001
  0
LWPOLYLINE
  5
C2
100
AcDbEntity
  8
Layer 1
  6
ByLayer
 62
    7
370
   -1
100
AcDbPolyline
 90
   30
 70
    0
 43
0
 10
277.800391
 20
64.998948
 10
277.682569
 20
64.34369100000001
 10
277.36631
 20
63.841397
 10
276.903289
 20
63.516869
 10
276.336916
 20
63.407315
 10
275.766409
 20
63.512735
 10
275.315791
 20
63.824861
 10
274.941655
 20
64.49665299999999
 10
274.807296
 20
65.532248
 10
274.931319
 20
66.617451
 10
275.311657
 20
67.46287700000001
 10
275.960713
 20
68.01064599999999
 10
276.878485
 20
68.207016
 10
277.165805
 20
68.19047999999999
 10
277.403517
 20
68.140871
 10
277.403517
 20
67.549693
 10
277.374578
 20
67.549693
 10
277.132733
 20
67.63444200000001
 10
276.795803
 20
67.673716
 10
276.272838
 20
67.576565
 10
275.861494
 20
67.28511
 10
275.579341
 20
66.801419
 10
275.443949
 20
66.12755900000001
 10
275.894567
 20
66.367338
 10
276.403062
 20
66.45001999999999
 10
276.876418
 20
66.396277
 10
277.300164
 20
66.17716900000001
 10
277.676368
 20
65.691411
 10
277.800391
 20
64.998948
 10
277.800391
 20
64.998948
  0
LWPOLYLINE
  5
C3
100
AcDbEntity
  8
Layer 1
  6
ByLayer
 62
    7
370
   -1
100
AcDbPolyline
 90
   17
 70
    0
 43
0
 10
277.172007
 20
64.974143
 10
277.097593
 20
65.451633
 10
276.857814
 20
65.780294
 10
276.580829
 20
65.91051899999999
 10
276.266637
 20
65.941525
 10
275.847024
 20
65.87744600000001
 10
275.443949
 20
65.68934400000001
 10
275.433614
 20
65.557052
 10
275.431547
 20
65.395822
 10
275.524564
 20
64.622744
 10
275.758141
 20
64.17626
 10
276.033059
 20
63.971621
 10
276.336916
 20
63.911677
 10
276.673846
 20
63.978339
 10
276.940496
 20
64.178327
 10
277.172007
 20
64.974143
 10
277.172007
 20
64.974143
  0
LWPOLYLINE
  5
C4
100
AcDbEntity
  8
Layer 1
  6
ByLayer
 62
    7
370
   -1
100
AcDbPolyline
 90
   37
 70
    0
 43
0
 10
284.346753
 20
63.5024
 10
284.346753
 20
65.50744299999999
 10
284.32815
 20
65.947726
 10
284.251669
 20
66.26398500000001
 10
284.073902
 20
66.447953
 10
283.763844
 20
66.507898
 10
283.379372
 20
66.39834399999999
 10
282.953559
 20
66.07795
 10
282.95976
 20
65.95392699999999
 10
282.965961
 20
65.780294
 10
282.965961
 20
63.5024
 10
282.383051
 20
63.5024
 10
282.383051
 20
65.50744299999999
 10
282.364448
 20
65.947726
 10
282.283833
 20
66.26398500000001
 10
282.108133
 20
66.447953
 10
281.800142
 20
66.507898
 10
281.4012
 20
66.390075
 10
280.998125
 20
66.090352
 10
280.998125
 20
63.5024
 10
280.415215
 20
63.5024
 10
280.415215
 20
66.966784
 10
280.998125
 20
66.966784
 10
280.998125
 20
66.582311
 10
281.452877
 20
66.935778
 10
281.94897
 20
67.061868
 10
282.492605
 20
66.923376
 10
282.85434
 20
66.462422
 10
283.366969
 20
66.910973
 10
283.912672
 20
67.061868
 10
284.319882
 20
66.99158799999999
 10
284.640275
 20
66.76834599999999
 10
284.853182
 20
66.375606
 10
284.929663
 20
65.780294
 10
284.929663
 20
63.5024
 10
284.346753
 20
63.5024
 10
284.346753
 20
63.5024
  0
LWPOLYLINE
  5
C5
100
AcDbEntity
  8
Layer 1
  6
ByLayer
 62
    7
370
   -1
100
AcDbPolyline
 90
   24
 70
    0
 43
0
 10
288.013708
 20
65.259396
 10
285.901179
 20
65.259396
 10
285.901179
 20
65.73068499999999
 10
286.357998
 20
66.08208399999999
 10
286.711464
 20
66.38387400000001
 10
287.143478
 20
66.8779
 10
287.244764
 20
67.305781
 10
287.112473
 20
67.636509
 10
286.744537
 20
67.752264
 10
286.310455
 20
67.65924699999999
 10
285.967324
 20
67.467011
 10
285.917715
 20
67.467011
 10
285.917715
 20
68.025116
 10
286.351796
 20
68.159474
 10
286.818951
 20
68.211151
 10
287.561023
 20
67.96930500000001
 10
287.819405
 20
67.34298800000001
 10
287.697449
 20
66.838626
 10
287.24063
 20
66.292924
 10
286.864426
 20
65.991134
 10
286.484088
 20
65.70587999999999
 10
288.013708
 20
65.70587999999999
 10
288.013708
 20
65.259396
 10
288.013708
 20
65.259396
  0
LWPOLYLINE
  5
C6
100
AcDbEntity
  8
Layer 1
  6
ByLayer
 62
    7
370
   -1
100
AcDbPolyline
 90
   38
 70
    0
 43
0
 10
99.02076
 20
74.003018
 10
98.187737
 20
74.153913
 10
97.532481
 20
74.60659800000001
 10
97.1046
 20
75.356939
 10
96.953705
 20
76.38839900000001
 10
97.100466
 20
77.401256
 10
97.528347
 20
78.14953
 10
98.18360300000001
 20
78.622885
 10
99.029028
 20
78.786182
 10
99.465177
 20
78.75310899999999
 10
99.843448
 20
78.666293
 10
100.147305
 20
78.550538
 10
100.455296
 20
78.397576
 10
100.455296
 20
77.653436
 10
100.405687
 20
77.653436
 10
100.198981
 20
77.83327
 10
99.88892300000001
 20
78.04204300000001
 10
99.504451
 20
78.199139
 10
99.024894
 20
78.26115
 10
98.46472199999999
 20
78.141261
 10
98.00376900000001
 20
77.78572800000001
 10
97.699912
 20
77.192483
 10
97.59035799999999
 20
76.38839900000001
 10
97.706113
 20
75.57397899999999
 10
98.02030600000001
 20
74.995204
 10
98.470924
 20
74.64793899999999
 10
99.024894
 20
74.532184
 10
99.516853
 20
74.59833
 10
99.917862
 20
74.763694
 10
100.215518
 20
74.960064
 10
100.409821
 20
75.13163
 10
100.455296
 20
75.13163
 10
100.455296
 20
74.39989199999999
 10
100.167976
 20
74.26346700000001
 10
99.843448
 20
74.13530900000001
 10
99.469311
 20
74.036091
 10
99.02076
 20
74.003018
 10
99.02076
 20
74.003018
  0
LWPOLYLINE
  5
C7
100
AcDbEntity
  8
Layer 1
  6
ByLayer
 62
    7
370
   -1
100
AcDbPolyline
 90
   22
 70
    0
 43
0
 10
103.706773
 20
74.0857
 10
103.123864
 20
74.0857
 10
103.123864
 20
76.05767
 10
103.099059
 20
76.504154
 10
103.012243
 20
76.834883
 10
102.811738
 20
77.027119
 10
102.46654
 20
77.09119800000001
 10
102.015922
 20
76.975442
 10
101.565304
 20
76.673652
 10
101.565304
 20
74.0857
 10
100.982395
 20
74.0857
 10
100.982395
 20
78.910206
 10
101.565304
 20
78.910206
 10
101.565304
 20
77.165611
 10
102.080001
 20
77.521145
 10
102.615368
 20
77.645168
 10
103.072187
 20
77.560936
 10
103.417385
 20
77.308238
 10
103.634426
 20
76.896378
 10
103.706773
 20
76.334655
 10
103.706773
 20
74.0857
 10
103.706773
 20
74.0857
  0
LWPOLYLINE
  5
C8
100
AcDbEntity
  8
Layer 1
  6
ByLayer
 62
    7
370
   -1
100
AcDbPolyline
 90
   11
 70
    0
 43
0
 10
106.458023
 20
74.937327
 10
106.458023
 20
75.90057400000001
 10
105.932991
 20
75.84889800000001
 10
105.420361
 20
75.75588
 10
105.035889
 20
75.538839
 10
104.882927
 20
75.12749599999999
 10
105.050359
 20
74.678945
 10
105.540251
 20
74.52804999999999
 10
106.040478
 20
74.645872
 10
106.458023
 20
74.937327
 10
106.458023
 20
74.937327
  0
LWPOLYLINE
  5
C9
100
AcDbEntity
  8
Layer 1
  6
ByLayer
 62
    7
370
   -1
100
AcDbPolyline
 90
   32
 70
    0
 43
0
 10
106.458023
 20
74.453636
 10
106.267854
 20
74.308942
 10
106.036344
 20
74.15598
 10
105.738688
 20
74.034024
 10
105.333545
 20
73.99061500000001
 10
104.926335
 20
74.071231
 10
104.589405
 20
74.29653999999999
 10
104.366164
 20
74.650006
 10
104.283481
 20
75.090289
 10
104.434376
 20
75.70213699999999
 10
104.916
 20
76.103145
 10
105.602262
 20
76.28918
 10
106.458023
 20
76.36359400000001
 10
106.458023
 20
76.47521500000001
 10
106.396011
 20
76.80801099999999
 10
106.222379
 20
77.000247
 10
105.949527
 20
77.095332
 10
105.618799
 20
77.120136
 10
105.143376
 20
77.058125
 10
104.597674
 20
76.88449199999999
 10
104.564601
 20
76.88449199999999
 10
104.564601
 20
77.47566999999999
 10
105.025554
 20
77.576955
 10
105.622933
 20
77.632766
 10
106.222379
 20
77.576955
 10
106.664728
 20
77.376451
 10
106.943781
 20
77.00644800000001
 10
107.036798
 20
76.454545
 10
107.036798
 20
74.0857
 10
106.458023
 20
74.0857
 10
106.458023
 20
74.453636
 10
106.458023
 20
74.453636
  0
LWPOLYLINE
  5
CA
100
AcDbEntity
  8
Layer 1
  6
ByLayer
 62
    7
370
   -1
100
AcDbPolyline
 90
   37
 70
    0
 43
0
 10
111.787923
 20
74.0857
 10
111.787923
 20
76.090743
 10
111.76932
 20
76.531026
 10
111.692839
 20
76.847285
 10
111.515072
 20
77.03125300000001
 10
111.205014
 20
77.09119800000001
 10
110.820542
 20
76.981644
 10
110.394729
 20
76.66125
 10
110.40093
 20
76.537227
 10
110.407131
 20
76.36359400000001
 10
110.407131
 20
74.0857
 10
109.824221
 20
74.0857
 10
109.824221
 20
76.090743
 10
109.805618
 20
76.531026
 10
109.725003
 20
76.847285
 10
109.549303
 20
77.03125300000001
 10
109.241312
 20
77.09119800000001
 10
108.842371
 20
76.973375
 10
108.439295
 20
76.673652
 10
108.439295
 20
74.0857
 10
107.856385
 20
74.0857
 10
107.856385
 20
77.550084
 10
108.439295
 20
77.550084
 10
108.439295
 20
77.165611
 10
108.894047
 20
77.51907799999999
 10
109.39014
 20
77.645168
 10
109.933775
 20
77.506676
 10
110.29551
 20
77.045722
 10
110.80814
 20
77.49427300000001
 10
111.353842
 20
77.645168
 10
111.761052
 20
77.574888
 10
112.081445
 20
77.351646
 10
112.294352
 20
76.958906
 10
112.370833
 20
76.36359400000001
 10
112.370833
 20
74.0857
 10
111.787923
 20
74.0857
 10
111.787923
 20
74.0857
  0
LWPOLYLINE
  5
CB
100
AcDbEntity
  8
Layer 1
  6
ByLayer
 62
    7
370
   -1
100
AcDbPolyline
 90
   14
 70
    0
 43
0
 10
115.492085
 20
75.83029399999999
 10
115.303983
 20
76.770804
 10
115.058521
 20
77.011099
 10
114.698336
 20
77.09119800000001
 10
114.214646
 20
76.97957700000001
 10
113.772296
 20
76.698457
 10
113.772296
 20
74.714085
 10
114.162969
 20
74.559056
 10
114.537106
 20
74.515647
 10
114.935531
 20
74.594712
 10
115.237838
 20
74.831907
 10
115.428524
 20
75.239633
 10
115.492085
 20
75.83029399999999
 10
115.492085
 20
75.83029399999999
  0
LWPOLYLINE
  5
CC
100
AcDbEntity
  8
Layer 1
  6
ByLayer
 62
    7
370
   -1
100
AcDbPolyline
 90
   19
 70
    0
 43
0
 10
116.095665
 20
75.87576900000001
 10
115.992313
 20
75.107859
 10
115.682254
 20
74.507379
 10
115.217167
 20
74.119806
 10
114.648727
 20
73.99061500000001
 10
114.167103
 20
74.060895
 10
113.772296
 20
74.24693000000001
 10
113.735089
 20
74.0857
 10
113.189387
 20
74.0857
 10
113.189387
 20
78.910206
 10
113.772296
 20
78.910206
 10
113.772296
 20
77.18628200000001
 10
114.249786
 20
77.514944
 10
114.834762
 20
77.645168
 10
115.356693
 20
77.527863
 10
115.756668
 20
77.17594699999999
 10
116.010916
 20
76.616292
 10
116.095665
 20
75.87576900000001
 10
116.095665
 20
75.87576900000001
  0
LWPOLYLINE
  5
CD
100
AcDbEntity
  8
Layer 1
  6
ByLayer
 62
    7
370
   -1
100
AcDbPolyline
 90
   17
 70
    0
 43
0
 10
118.53479
 20
76.921699
 10
118.505851
 20
76.921699
 10
118.367359
 20
76.946504
 10
118.191659
 20
76.950638
 10
117.722437
 20
76.849352
 10
117.282155
 20
76.545495
 10
117.282155
 20
74.0857
 10
116.699245
 20
74.0857
 10
116.699245
 20
77.550084
 10
117.282155
 20
77.550084
 10
117.282155
 20
77.03332
 10
117.838193
 20
77.43432900000001
 10
118.299146
 20
77.550084
 10
118.435571
 20
77.54595
 10
118.53479
 20
77.52941300000001
 10
118.53479
 20
76.921699
 10
118.53479
 20
76.921699
  0
LWPOLYLINE
  5
CE
100
AcDbEntity
  8
Layer 1
  6
ByLayer
 62
    7
370
   -1
100
AcDbPolyline
 90
   30
 70
    0
 43
0
 10
120.492291
 20
74.003018
 10
119.757453
 20
74.119806
 10
119.206583
 20
74.47017200000001
 10
118.862418
 20
75.035512
 10
118.747697
 20
75.79722099999999
 10
118.858801
 20
76.557897
 10
119.192113
 20
77.144941
 10
119.704226
 20
77.520111
 10
120.351731
 20
77.645168
 10
120.922238
 20
77.55215099999999
 10
121.35632
 20
77.260696
 10
121.641573
 20
76.77493800000001
 10
121.740792
 20
76.074207
 10
121.740792
 20
75.75588
 10
119.343008
 20
75.75588
 10
119.418973
 20
75.223614
 10
119.646865
 20
74.833974
 10
120.008083
 20
74.595229
 10
120.484023
 20
74.515647
 10
120.862294
 20
74.559056
 10
121.195089
 20
74.668609
 10
121.461739
 20
74.807102
 10
121.641573
 20
74.93319200000001
 10
121.674646
 20
74.93319200000001
 10
121.674646
 20
74.29653999999999
 10
121.422465
 20
74.19525400000001
 10
121.149614
 20
74.102236
 10
120.841623
 20
74.027822
 10
120.492291
 20
74.003018
 10
120.492291
 20
74.003018
  0
LWPOLYLINE
  5
CF
100
AcDbEntity
  8
Layer 1
  6
ByLayer
 62
    7
370
   -1
100
AcDbPolyline
 90
   11
 70
    0
 43
0
 10
121.174419
 20
76.202364
 10
121.116541
 20
76.60957399999999
 10
120.975982
 20
76.896894
 10
120.713466
 20
77.097399
 10
120.318658
 20
77.165611
 10
119.923851
 20
77.095332
 10
119.628262
 20
76.89276
 10
119.427758
 20
76.59097
 10
119.343008
 20
76.202364
 10
121.174419
 20
76.202364
 10
121.174419
 20
76.202364
  0
LWPOLYLINE
  5
D0
100
AcDbEntity
  8
Layer 1
  6
ByLayer
 62
    7
370
   -1
100
AcDbPolyline
 90
   32
 70
    0
 43
0
 10
127.079994
 20
74.0857
 10
124.231593
 20
74.0857
 10
124.231593
 20
74.73475500000001
 10
124.810368
 20
75.29079299999999
 10
125.343668
 20
75.84683099999999
 10
126.06507
 20
76.77493800000001
 10
126.257306
 20
77.49634
 10
126.195295
 20
77.835337
 10
126.02993
 20
78.07511599999999
 10
125.779817
 20
78.215675
 10
125.463557
 20
78.26115
 10
125.132828
 20
78.219809
 10
124.806234
 20
78.116457
 10
124.55612
 20
77.988299
 10
124.35975
 20
77.864276
 10
124.326677
 20
77.864276
 10
124.326677
 20
78.52159899999999
 10
124.862044
 20
78.707634
 10
125.513167
 20
78.798585
 10
126.088325
 20
78.712802
 10
126.523956
 20
78.455454
 10
126.798358
 20
78.052378
 10
126.889825
 20
77.52941300000001
 10
126.825746
 20
77.027119
 10
126.650047
 20
76.603373
 10
126.373061
 20
76.202364
 10
126.034064
 20
75.81375800000001
 10
125.382942
 20
75.15436699999999
 10
124.810368
 20
74.61486600000001
 10
127.079994
 20
74.61486600000001
 10
127.079994
 20
74.0857
 10
127.079994
 20
74.0857
  0
LWPOLYLINE
  5
D1
100
AcDbEntity
  8
Layer 1
  6
ByLayer
 62
    7
370
   -1
100
AcDbPolyline
 90
   14
 70
    0
 43
0
 10
101.886354
 20
63.5024
 10
99.637399
 20
63.5024
 10
99.637399
 20
63.973688
 10
100.472489
 20
63.973688
 10
100.472489
 20
67.07013600000001
 10
99.637399
 20
67.07013600000001
 10
99.637399
 20
67.491816
 10
100.333996
 20
67.62617400000001
 10
100.588244
 20
68.136737
 10
101.0678
 20
68.136737
 10
101.0678
 20
63.973688
 10
101.886354
 20
63.973688
 10
101.886354
 20
63.5024
 10
101.886354
 20
63.5024
  0
LWPOLYLINE
  5
D2
100
AcDbEntity
  8
Layer 1
  6
ByLayer
 62
    7
370
   -1
100
AcDbPolyline
 90
   30
 70
    0
 43
0
 10
105.658729
 20
64.998948
 10
105.540907
 20
64.34369100000001
 10
105.224647
 20
63.841397
 10
104.761627
 20
63.516869
 10
104.195254
 20
63.407315
 10
103.624747
 20
63.512735
 10
103.174129
 20
63.824861
 10
102.799992
 20
64.49665299999999
 10
102.665634
 20
65.532248
 10
102.789657
 20
66.617451
 10
103.169995
 20
67.46287700000001
 10
103.81905
 20
68.01064599999999
 10
104.736823
 20
68.207016
 10
105.024143
 20
68.19047999999999
 10
105.261854
 20
68.140871
 10
105.261854
 20
67.549693
 10
105.232916
 20
67.549693
 10
104.99107
 20
67.63444200000001
 10
104.65414
 20
67.673716
 10
104.131175
 20
67.576565
 10
103.719832
 20
67.28511
 10
103.437679
 20
66.801419
 10
103.302287
 20
66.12755900000001
 10
103.752904
 20
66.367338
 10
104.2614
 20
66.45001999999999
 10
104.734755
 20
66.396277
 10
105.158502
 20
66.17716900000001
 10
105.534706
 20
65.691411
 10
105.658729
 20
64.998948
 10
105.658729
 20
64.998948
  0
LWPOLYLINE
  5
D3
100
AcDbEntity
  8
Layer 1
  6
ByLayer
 62
    7
370
   -1
100
AcDbPolyline
 90
   17
 70
    0
 43
0
 10
105.030344
 20
64.974143
 10
104.95593
 20
65.451633
 10
104.716152
 20
65.780294
 10
104.439167
 20
65.91051899999999
 10
104.124974
 20
65.941525
 10
103.705362
 20
65.87744600000001
 10
103.302287
 20
65.68934400000001
 10
103.291951
 20
65.557052
 10
103.289884
 20
65.395822
 10
103.382902
 20
64.622744
 10
103.616479
 20
64.17626
 10
103.891397
 20
63.971621
 10
104.195254
 20
63.911677
 10
104.532184
 20
63.978339
 10
104.798834
 20
64.178327
 10
105.030344
 20
64.974143
 10
105.030344
 20
64.974143
  0
LWPOLYLINE
  5
D4
100
AcDbEntity
  8
Layer 1
  6
ByLayer
 62
    7
370
   -1
100
AcDbPolyline
 90
    6
 70
    0
 43
0
 10
107.417792
 20
64.38709900000001
 10
106.549629
 20
62.353118
 10
106.099012
 20
62.353118
 10
106.644714
 20
64.38709900000001
 10
107.417792
 20
64.38709900000001
 10
107.417792
 20
64.38709900000001
  0
LWPOLYLINE
  5
D5
100
AcDbEntity
  8
Layer 1
  6
ByLayer
 62
    7
370
   -1
100
AcDbPolyline
 90
   30
 70
    0
 43
0
 10
111.04754
 20
64.998948
 10
110.929718
 20
64.34369100000001
 10
110.613459
 20
63.841397
 10
110.150439
 20
63.516869
 10
109.584066
 20
63.407315
 10
109.013559
 20
63.512735
 10
108.562941
 20
63.824861
 10
108.188804
 20
64.49665299999999
 10
108.054445
 20
65.532248
 10
108.178469
 20
66.617451
 10
108.558807
 20
67.46287700000001
 10
109.207862
 20
68.01064599999999
 10
110.125634
 20
68.207016
 10
110.412955
 20
68.19047999999999
 10
110.650666
 20
68.140871
 10
110.650666
 20
67.549693
 10
110.621727
 20
67.549693
 10
110.379882
 20
67.63444200000001
 10
110.042952
 20
67.673716
 10
109.519987
 20
67.576565
 10
109.108643
 20
67.28511
 10
108.82649
 20
66.801419
 10
108.691098
 20
66.12755900000001
 10
109.141716
 20
66.367338
 10
109.650212
 20
66.45001999999999
 10
110.123567
 20
66.396277
 10
110.547313
 20
66.17716900000001
 10
110.923517
 20
65.691411
 10
111.04754
 20
64.998948
 10
111.04754
 20
64.998948
  0
LWPOLYLINE
  5
D6
100
AcDbEntity
  8
Layer 1
  6
ByLayer
 62
    7
370
   -1
100
AcDbPolyline
 90
   17
 70
    0
 43
0
 10
110.419156
 20
64.974143
 10
110.344742
 20
65.451633
 10
110.104964
 20
65.780294
 10
109.827978
 20
65.91051899999999
 10
109.513786
 20
65.941525
 10
109.094174
 20
65.87744600000001
 10
108.691098
 20
65.68934400000001
 10
108.680763
 20
65.557052
 10
108.678696
 20
65.395822
 10
108.771713
 20
64.622744
 10
109.00529
 20
64.17626
 10
109.280209
 20
63.971621
 10
109.584066
 20
63.911677
 10
109.920996
 20
63.978339
 10
110.187646
 20
64.178327
 10
110.419156
 20
64.974143
 10
110.419156
 20
64.974143
  0
LWPOLYLINE
  5
D7
100
AcDbEntity
  8
Layer 1
  6
ByLayer
 62
    7
370
   -1
100
AcDbPolyline
 90
   12
 70
    0
 43
0
 10
113.769851
 20
67.045332
 10
113.563146
 20
67.562095
 10
112.988505
 20
67.768801
 10
112.434534
 20
67.58276600000001
 10
112.21956
 20
67.082539
 10
112.329114
 20
66.693932
 10
112.657776
 20
66.40867900000001
 10
112.951298
 20
66.26191799999999
 10
113.310965
 20
66.115157
 10
113.674767
 20
66.543037
 10
113.769851
 20
67.045332
 10
113.769851
 20
67.045332
  0
LWPOLYLINE
  5
D8
100
AcDbEntity
  8
Layer 1
  6
ByLayer
 62
    7
370
   -1
100
AcDbPolyline
 90
   13
 70
    0
 43
0
 10
113.856668
 20
64.73023000000001
 10
113.745047
 20
65.18291499999999
 10
113.315099
 20
65.523979
 10
113.036047
 20
65.65007
 10
112.64124
 20
65.813367
 10
112.244365
 20
65.393755
 10
112.10794
 20
64.825315
 10
112.362187
 20
64.130785
 10
112.647958
 20
63.926146
 10
112.996773
 20
63.857933
 10
113.621024
 20
64.09357799999999
 10
113.856668
 20
64.73023000000001
 10
113.856668
 20
64.73023000000001
  0
LWPOLYLINE
  5
D9
100
AcDbEntity
  8
Layer 1
  6
ByLayer
 62
    7
370
   -1
100
AcDbPolyline
 90
   28
 70
    0
 43
0
 10
112.988505
 20
63.394913
 10
112.364254
 20
63.498266
 10
111.884698
 20
63.795922
 10
111.587042
 20
64.236204
 10
111.487823
 20
64.775706
 10
111.68626
 20
65.46610200000001
 10
112.26917
 20
65.966329
 10
112.26917
 20
65.98699999999999
 10
111.762741
 20
66.421081
 10
111.599444
 20
67.00812500000001
 10
111.697629
 20
67.485614
 10
111.992184
 20
67.876288
 10
112.437635
 20
68.136737
 10
112.988505
 20
68.223553
 10
113.557462
 20
68.14138699999999
 10
113.999295
 20
67.894891
 10
114.282998
 20
67.519204
 10
114.377566
 20
67.049466
 10
114.197732
 20
66.435551
 10
113.674767
 20
65.96219499999999
 10
113.674767
 20
65.941525
 10
114.286615
 20
65.48470500000001
 10
114.493321
 20
64.78810799999999
 10
114.385834
 20
64.244473
 10
114.063373
 20
63.795922
 10
113.579682
 20
63.495165
 10
112.988505
 20
63.394913
 10
112.988505
 20
63.394913
  0
LWPOLYLINE
  5
DA
100
AcDbEntity
  8
Layer 1
  6
ByLayer
 62
    7
370
   -1
100
AcDbPolyline
 90
   37
 70
    0
 43
0
 10
121.060353
 20
63.5024
 10
121.060353
 20
65.50744299999999
 10
121.04175
 20
65.947726
 10
120.965269
 20
66.26398500000001
 10
120.787502
 20
66.447953
 10
120.477444
 20
66.507898
 10
120.092972
 20
66.39834399999999
 10
119.667159
 20
66.07795
 10
119.67336
 20
65.95392699999999
 10
119.679561
 20
65.780294
 10
119.679561
 20
63.5024
 10
119.096651
 20
63.5024
 10
119.096651
 20
65.50744299999999
 10
119.078048
 20
65.947726
 10
118.997433
 20
66.26398500000001
 10
118.821733
 20
66.447953
 10
118.513742
 20
66.507898
 10
118.1148
 20
66.390075
 10
117.711725
 20
66.090352
 10
117.711725
 20
63.5024
 10
117.128815
 20
63.5024
 10
117.128815
 20
66.966784
 10
117.711725
 20
66.966784
 10
117.711725
 20
66.582311
 10
118.166477
 20
66.935778
 10
118.66257
 20
67.061868
 10
119.206205
 20
66.923376
 10
119.56794
 20
66.462422
 10
120.080569
 20
66.910973
 10
120.626272
 20
67.061868
 10
121.033482
 20
66.99158799999999
 10
121.353875
 20
66.76834599999999
 10
121.566782
 20
66.375606
 10
121.643263
 20
65.780294
 10
121.643263
 20
63.5024
 10
121.060353
 20
63.5024
 10
121.060353
 20
63.5024
  0
LWPOLYLINE
  5
DB
100
AcDbEntity
  8
Layer 1
  6
ByLayer
 62
    7
370
   -1
100
AcDbPolyline
 90
   24
 70
    0
 43
0
 10
124.727308
 20
65.259396
 10
122.614778
 20
65.259396
 10
122.614778
 20
65.73068499999999
 10
123.071598
 20
66.08208399999999
 10
123.425064
 20
66.38387400000001
 10
123.857078
 20
66.8779
 10
123.958364
 20
67.305781
 10
123.826073
 20
67.636509
 10
123.458137
 20
67.752264
 10
123.024055
 20
67.65924699999999
 10
122.680924
 20
67.467011
 10
122.631315
 20
67.467011
 10
122.631315
 20
68.025116
 10
123.065396
 20
68.159474
 10
123.532551
 20
68.211151
 10
124.274623
 20
67.96930500000001
 10
124.533005
 20
67.34298800000001
 10
124.411049
 20
66.838626
 10
123.95423
 20
66.292924
 10
123.578026
 20
65.991134
 10
123.197688
 20
65.70587999999999
 10
124.727308
 20
65.70587999999999
 10
124.727308
 20
65.259396
 10
124.727308
 20
65.259396
  0
LWPOLYLINE
  5
DC
100
AcDbEntity
  8
Layer 1
  6
ByLayer
 62
    7
370
   -1
100
AcDbPolyline
 90
   40
 70
    0
 43
0
 10
182.709996
 20
55.784118
 10
181.854236
 20
55.887471
 10
181.192778
 20
56.143785
 10
181.192778
 20
56.91273
 10
181.234119
 20
56.91273
 10
181.924516
 20
56.47038
 10
182.664521
 20
56.313284
 10
183.433466
 20
56.52619
 10
183.693915
 20
57.086362
 10
183.557489
 20
57.53698
 10
183.123407
 20
57.793295
 10
182.732734
 20
57.894581
 10
182.288317
 20
58.004135
 10
181.862504
 20
58.161231
 10
181.527641
 20
58.413411
 10
181.304399
 20
58.771012
 10
181.225851
 20
59.248501
 10
181.335405
 20
59.762165
 10
181.664067
 20
60.186944
 10
182.162227
 20
60.472198
 10
182.780276
 20
60.567282
 10
183.514081
 20
60.490801
 10
184.152801
 20
60.269626
 10
184.152801
 20
59.533755
 10
184.107325
 20
59.533755
 10
183.54302
 20
59.887221
 10
182.821617
 20
60.038116
 10
182.129154
 20
59.837612
 10
181.866638
 20
59.310513
 10
182.021667
 20
58.843359
 10
182.470218
 20
58.591178
 10
182.947708
 20
58.471289
 10
183.416929
 20
58.347266
 10
184.113527
 20
57.906983
 10
184.334701
 20
57.181447
 10
184.223081
 20
56.648147
 10
183.913022
 20
56.201663
 10
183.410728
 20
55.891605
 10
182.709996
 20
55.784118
 10
182.709996
 20
55.784118
  0
LWPOLYLINE
  5
DD
100
AcDbEntity
  8
Layer 1
  6
ByLayer
 62
    7
370
   -1
100
AcDbPolyline
 90
   13
 70
    0
 43
0
 10
188.600069
 20
58.169499
 10
188.343754
 20
57.028485
 10
187.657492
 20
56.234736
 10
186.944358
 20
55.941214
 10
186.024519
 20
55.8668
 10
184.957918
 20
55.8668
 10
184.957918
 20
60.4846
 10
186.012116
 20
60.4846
 10
187.031174
 20
60.387449
 10
187.661626
 20
60.116664
 10
188.354089
 20
59.335318
 10
188.600069
 20
58.169499
 10
188.600069
 20
58.169499
  0
LWPOLYLINE
  5
DE
100
AcDbEntity
  8
Layer 1
  6
ByLayer
 62
    7
370
   -1
100
AcDbPolyline
 90
   13
 70
    0
 43
0
 10
187.959282
 20
58.181901
 10
187.783582
 20
59.091405
 10
187.260617
 20
59.678449
 10
186.737653
 20
59.891355
 10
186.041055
 20
59.955434
 10
185.573901
 20
59.955434
 10
185.573901
 20
56.395966
 10
186.041055
 20
56.395966
 10
186.758323
 20
56.460045
 10
187.318495
 20
56.70189
 10
187.798052
 20
57.278598
 10
187.959282
 20
58.181901
 10
187.959282
 20
58.181901
  0
LWPOLYLINE
  5
DF
100
AcDbEntity
  8
Layer 1
  6
ByLayer
 62
    7
370
   -1
100
AcDbPolyline
 90
   18
 70
    0
 43
0
 10
192.398282
 20
57.2848
 10
192.268057
 20
56.677085
 10
191.918725
 20
56.243004
 10
191.36062
 20
55.951549
 10
190.591676
 20
55.8668
 10
189.264627
 20
55.8668
 10
189.264627
 20
60.4846
 10
190.492457
 20
60.4846
 10
191.230396
 20
60.451527
 10
191.703751
 20
60.298565
 10
192.065486
 20
59.949233
 10
192.179174
 20
59.442805
 10
192.007608
 20
58.859895
 10
191.534253
 20
58.454752
 10
191.534253
 20
58.429948
 10
192.170906
 20
58.022738
 10
192.398282
 20
57.2848
 10
192.398282
 20
57.2848
  0
LWPOLYLINE
  5
E0
100
AcDbEntity
  8
Layer 1
  6
ByLayer
 62
    7
370
   -1
100
AcDbPolyline
 90
   13
 70
    0
 43
0
 10
191.542521
 20
59.355988
 10
191.486711
 20
59.645376
 10
191.306877
 20
59.839679
 10
190.974081
 20
59.940965
 10
190.467653
 20
59.959568
 10
189.880609
 20
59.959568
 10
189.880609
 20
58.607715
 10
190.579274
 20
58.607715
 10
191.000953
 20
58.636653
 10
191.286206
 20
58.760677
 10
191.482577
 20
58.996321
 10
191.542521
 20
59.355988
 10
191.542521
 20
59.355988
  0
LWPOLYLINE
  5
E1
100
AcDbEntity
  8
Layer 1
  6
ByLayer
 62
    7
370
   -1
100
AcDbPolyline
 90
   13
 70
    0
 43
0
 10
191.757495
 20
57.259995
 10
191.683081
 20
57.689942
 10
191.385425
 20
57.975196
 10
191.065032
 20
58.074414
 10
190.579274
 20
58.095085
 10
189.880609
 20
58.095085
 10
189.880609
 20
56.391832
 10
190.380836
 20
56.391832
 10
191.015422
 20
56.429039
 10
191.422632
 20
56.586135
 10
191.67688
 20
56.861053
 10
191.757495
 20
57.259995
 10
191.757495
 20
57.259995
  0
LWPOLYLINE
  5
E2
100
AcDbEntity
  8
Layer 1
  6
ByLayer
 62
    7
370
   -1
100
AcDbPolyline
 90
   32
 70
    0
 43
0
 10
197.711646
 20
55.8668
 10
194.863245
 20
55.8668
 10
194.863245
 20
56.515855
 10
195.44202
 20
57.071893
 10
195.97532
 20
57.627931
 10
196.696722
 20
58.556038
 10
196.888958
 20
59.27744
 10
196.826946
 20
59.616437
 10
196.661582
 20
59.856216
 10
196.411468
 20
59.996775
 10
196.095209
 20
60.04225
 10
195.76448
 20
60.000909
 10
195.437886
 20
59.897557
 10
195.187772
 20
59.769399
 10
194.991402
 20
59.645376
 10
194.958329
 20
59.645376
 10
194.958329
 20
60.302699
 10
195.493696
 20
60.488734
 10
196.144818
 20
60.579685
 10
196.719976
 20
60.493902
 10
197.155608
 20
60.236554
 10
197.43001
 20
59.833478
 10
197.521477
 20
59.310513
 10
197.457398
 20
58.808219
 10
197.281699
 20
58.384473
 10
197.004713
 20
57.983464
 10
196.665716
 20
57.594858
 10
196.014594
 20
56.935467
 10
195.44202
 20
56.395966
 10
197.711646
 20
56.395966
 10
197.711646
 20
55.8668
 10
197.711646
 20
55.8668
  0
LWPOLYLINE
  5
E3
100
AcDbEntity
  8
Layer 1
  6
ByLayer
 62
    7
370
   -1
100
AcDbPolyline
 90
   35
 70
    0
 43
0
 10
181.219655
 20
46.755143
 10
181.114235
 20
46.135027
 10
180.814512
 20
45.638933
 10
180.330821
 20
45.308205
 10
179.681766
 20
45.188315
 10
179.02651
 20
45.260662
 10
178.470472
 20
45.452898
 10
178.470472
 20
46.106088
 10
178.515947
 20
46.106088
 10
178.718519
 20
45.986199
 10
179.012041
 20
45.862175
 10
179.34897
 20
45.76089
 10
179.690034
 20
45.72575
 10
180.051769
 20
45.791895
 10
180.355626
 20
46.006869
 10
180.531326
 20
46.325196
 10
180.59127
 20
46.755143
 10
180.525125
 20
47.160286
 10
180.330821
 20
47.420735
 10
180.004227
 20
47.586099
 10
179.570145
 20
47.635708
 10
179.067851
 20
47.596434
 10
178.660641
 20
47.524087
 10
178.660641
 20
49.9012
 10
181.19485
 20
49.9012
 10
181.19485
 20
49.359632
 10
179.260087
 20
49.359632
 10
179.260087
 20
48.131801
 10
179.479195
 20
48.150405
 10
179.677632
 20
48.156606
 10
180.275011
 20
48.096661
 10
180.748366
 20
47.867218
 10
181.097699
 20
47.433137
 10
181.219655
 20
46.755143
 10
181.219655
 20
46.755143
  0
LWPOLYLINE
  5
E4
100
AcDbEntity
  8
Layer 1
  6
ByLayer
 62
    7
370
   -1
100
AcDbPolyline
 90
    6
 70
    0
 43
0
 10
183.102742
 20
46.168099
 10
182.234579
 20
44.134118
 10
181.783961
 20
44.134118
 10
182.329663
 20
46.168099
 10
183.102742
 20
46.168099
 10
183.102742
 20
46.168099
  0
LWPOLYLINE
  5
E5
100
AcDbEntity
  8
Layer 1
  6
ByLayer
 62
    7
370
   -1
100
AcDbPolyline
 90
   18
 70
    0
 43
0
 10
186.68288
 20
47.594367
 10
186.592964
 20
46.515881
 10
186.323213
 20
45.769158
 10
185.864327
 20
45.333526
 10
185.207003
 20
45.188315
 10
184.547096
 20
45.33611
 10
184.088727
 20
45.779493
 10
183.820526
 20
46.526733
 10
183.731126
 20
47.586099
 10
183.82156
 20
48.669752
 10
184.092861
 20
49.415442
 10
184.552264
 20
49.847974
 10
185.207003
 20
49.992151
 10
185.869494
 20
49.842806
 10
186.327347
 20
49.394772
 10
186.593997
 20
48.645981
 10
186.68288
 20
47.594367
 10
186.68288
 20
47.594367
  0
LWPOLYLINE
  5
E6
100
AcDbEntity
  8
Layer 1
  6
ByLayer
 62
    7
370
   -1
100
AcDbPolyline
 90
   18
 70
    0
 43
0
 10
185.889131
 20
46.184636
 10
186.017289
 20
46.765478
 10
186.054496
 20
47.594367
 10
186.017289
 20
48.419122
 10
185.889131
 20
48.999964
 10
185.63075
 20
49.359632
 10
185.207003
 20
49.483655
 10
184.785324
 20
49.359632
 10
184.524875
 20
48.99583
 10
184.396718
 20
48.400518
 10
184.363645
 20
47.586099
 10
184.392584
 20
46.777881
 10
184.520741
 20
46.197038
 10
184.777056
 20
45.829102
 10
185.207003
 20
45.700945
 10
185.632817
 20
45.822901
 10
185.889131
 20
46.184636
 10
185.889131
 20
46.184636
  0
LWPOLYLINE
  5
E7
100
AcDbEntity
  8
Layer 1
  6
ByLayer
 62
    7
370
   -1
100
AcDbPolyline
 90
    9
 70
    0
 43
0
 10
190.17827
 20
49.210804
 10
188.181495
 20
45.2834
 10
187.520038
 20
45.2834
 10
189.636702
 20
49.359632
 10
187.247186
 20
49.359632
 10
187.247186
 20
49.9012
 10
190.17827
 20
49.9012
 10
190.17827
 20
49.210804
 10
190.17827
 20
49.210804
  0
LWPOLYLINE
  5
E8
100
AcDbEntity
  8
Layer 1
  6
ByLayer
 62
    7
370
   -1
100
AcDbPolyline
 90
   37
 70
    0
 43
0
 10
196.745303
 20
45.2834
 10
196.745303
 20
47.288443
 10
196.726699
 20
47.728726
 10
196.650218
 20
48.044985
 10
196.472451
 20
48.228953
 10
196.162393
 20
48.288898
 10
195.777921
 20
48.179344
 10
195.352108
 20
47.85895
 10
195.358309
 20
47.734927
 10
195.36451
 20
47.561294
 10
195.36451
 20
45.2834
 10
194.781601
 20
45.2834
 10
194.781601
 20
47.288443
 10
194.762997
 20
47.728726
 10
194.682382
 20
48.044985
 10
194.506682
 20
48.228953
 10
194.198691
 20
48.288898
 10
193.79975
 20
48.171075
 10
193.396674
 20
47.871352
 10
193.396674
 20
45.2834
 10
192.813765
 20
45.2834
 10
192.813765
 20
48.747784
 10
193.396674
 20
48.747784
 10
193.396674
 20
48.363311
 10
193.851426
 20
48.716778
 10
194.347519
 20
48.842868
 10
194.891155
 20
48.704376
 10
195.252889
 20
48.243422
 10
195.765519
 20
48.691973
 10
196.311221
 20
48.842868
 10
196.718431
 20
48.772588
 10
197.038824
 20
48.549346
 10
197.251731
 20
48.156606
 10
197.328212
 20
47.561294
 10
197.328212
 20
45.2834
 10
196.745303
 20
45.2834
 10
196.745303
 20
45.2834
  0
LWPOLYLINE
  5
E9
100
AcDbEntity
  8
Layer 1
  6
ByLayer
 62
    7
370
   -1
100
AcDbPolyline
 90
   24
 70
    0
 43
0
 10
200.412258
 20
47.040396
 10
198.299728
 20
47.040396
 10
198.299728
 20
47.511685
 10
198.756547
 20
47.863084
 10
199.110013
 20
48.164874
 10
199.542028
 20
48.6589
 10
199.643313
 20
49.086781
 10
199.511022
 20
49.417509
 10
199.143086
 20
49.533264
 10
198.709005
 20
49.440247
 10
198.365874
 20
49.248011
 10
198.316264
 20
49.248011
 10
198.316264
 20
49.806116
 10
198.750346
 20
49.940474
 10
199.2175
 20
49.992151
 10
199.959573
 20
49.750305
 10
200.217955
 20
49.123988
 10
200.095998
 20
48.619626
 10
199.639179
 20
48.073924
 10
199.262975
 20
47.772134
 10
198.882637
 20
47.48688
 10
200.412258
 20
47.48688
 10
200.412258
 20
47.040396
 10
200.412258
 20
47.040396
  0
LWPOLYLINE
  5
EA
100
AcDbEntity
  8
Layer 1
  6
ByLayer
 62
    7
370
   -1
100
AcDbPolyline
 90
   49
 70
    0
 43
0
 10
192.116364
 20
107.34245
 10
191.783568
 20
107.303176
 10
191.454906
 20
107.197757
 10
191.196525
 20
107.067532
 10
191.000154
 20
106.941442
 10
190.962947
 20
106.941442
 10
190.962947
 20
107.594631
 10
191.50865
 20
107.791001
 10
192.165973
 20
107.879885
 10
192.713743
 20
107.815806
 10
193.137489
 20
107.619436
 10
193.447547
 20
107.259768
 10
193.5509
 20
106.767809
 10
193.298719
 20
106.098084
 10
192.699273
 20
105.730148
 10
192.699273
 20
105.688807
 10
193.009332
 20
105.591655
 10
193.31939
 20
105.391151
 10
193.5509
 20
105.04802
 10
193.64185
 20
104.539524
 10
193.534363
 20
103.962816
 10
193.232573
 20
103.497729
 10
192.744749
 20
103.179402
 10
192.095693
 20
103.071915
 10
191.407364
 20
103.154598
 10
190.83479
 20
103.357169
 10
190.83479
 20
104.010358
 10
190.876131
 20
104.010358
 10
191.40323
 20
103.739574
 10
192.058486
 20
103.60935
 10
192.438824
 20
103.669294
 10
192.757151
 20
103.865664
 10
192.945253
 20
104.165387
 10
193.009332
 20
104.580865
 10
192.936985
 20
104.994276
 10
192.73648
 20
105.246457
 10
192.426422
 20
105.376681
 10
192.04195
 20
105.411821
 10
191.777367
 20
105.411821
 10
191.777367
 20
105.928585
 10
191.979938
 20
105.928585
 10
192.662066
 20
106.127022
 10
192.857403
 20
106.369901
 10
192.922515
 20
106.701664
 10
192.854302
 20
107.001386
 10
192.682737
 20
107.201891
 10
192.420221
 20
107.311445
 10
192.116364
 20
107.34245
 10
192.116364
 20
107.34245
  0
LWPOLYLINE
  5
EB
100
AcDbEntity
  8
Layer 1
  6
ByLayer
 62
    7
370
   -1
100
AcDbPolyline
 90
    6
 70
    0
 43
0
 10
195.549742
 20
104.051699
 10
194.681579
 20
102.017718
 10
194.230961
 20
102.017718
 10
194.776663
 20
104.051699
 10
195.549742
 20
104.051699
 10
195.549742
 20
104.051699
  0
LWPOLYLINE
  5
EC
100
AcDbEntity
  8
Layer 1
  6
ByLayer
 62
    7
370
   -1
100
AcDbPolyline
 90
   13
 70
    0
 43
0
 10
199.229099
 20
104.754498
 10
198.683397
 20
104.754498
 10
198.683397
 20
103.167
 10
198.088085
 20
103.167
 10
198.088085
 20
104.754498
 10
196.045835
 20
104.754498
 10
196.045835
 20
105.407687
 10
198.11289
 20
107.7848
 10
198.683397
 20
107.7848
 10
198.683397
 20
105.250591
 10
199.229099
 20
105.250591
 10
199.229099
 20
104.754498
 10
199.229099
 20
104.754498
  0
LWPOLYLINE
  5
ED
100
AcDbEntity
  8
Layer 1
  6
ByLayer
 62
    7
370
   -1
100
AcDbPolyline
 90
    5
 70
    0
 43
0
 10
198.088085
 20
105.250591
 10
198.088085
 20
107.057197
 10
196.529526
 20
105.250591
 10
198.088085
 20
105.250591
 10
198.088085
 20
105.250591
  0
LWPOLYLINE
  5
EE
100
AcDbEntity
  8
Layer 1
  6
ByLayer
 62
    7
370
   -1
100
AcDbPolyline
 90
   13
 70
    0
 43
0
 10
202.69555
 20
104.754498
 10
202.149847
 20
104.754498
 10
202.149847
 20
103.167
 10
201.554536
 20
103.167
 10
201.554536
 20
104.754498
 10
199.512286
 20
104.754498
 10
199.512286
 20
105.407687
 10
201.57934
 20
107.7848
 10
202.149847
 20
107.7848
 10
202.149847
 20
105.250591
 10
202.69555
 20
105.250591
 10
202.69555
 20
104.754498
 10
202.69555
 20
104.754498
  0
LWPOLYLINE
  5
EF
100
AcDbEntity
  8
Layer 1
  6
ByLayer
 62
    7
370
   -1
100
AcDbPolyline
 90
    5
 70
    0
 43
0
 10
201.554536
 20
105.250591
 10
201.554536
 20
107.057197
 10
199.995976
 20
105.250591
 10
201.554536
 20
105.250591
 10
201.554536
 20
105.250591
  0
LWPOLYLINE
  5
F0
100
AcDbEntity
  8
Layer 1
  6
ByLayer
 62
    7
370
   -1
100
AcDbPolyline
 90
   37
 70
    0
 43
0
 10
209.192303
 20
103.167
 10
209.192303
 20
105.172043
 10
209.173699
 20
105.612326
 10
209.097218
 20
105.928585
 10
208.919451
 20
106.112553
 10
208.609393
 20
106.172498
 10
208.224921
 20
106.062944
 10
207.799108
 20
105.74255
 10
207.805309
 20
105.618527
 10
207.81151
 20
105.444894
 10
207.81151
 20
103.167
 10
207.228601
 20
103.167
 10
207.228601
 20
105.172043
 10
207.209997
 20
105.612326
 10
207.129382
 20
105.928585
 10
206.953682
 20
106.112553
 10
206.645691
 20
106.172498
 10
206.24675
 20
106.054675
 10
205.843674
 20
105.754952
 10
205.843674
 20
103.167
 10
205.260765
 20
103.167
 10
205.260765
 20
106.631384
 10
205.843674
 20
106.631384
 10
205.843674
 20
106.246911
 10
206.298426
 20
106.600378
 10
206.794519
 20
106.726468
 10
207.338155
 20
106.587976
 10
207.699889
 20
106.127022
 10
208.212519
 20
106.575573
 10
208.758221
 20
106.726468
 10
209.165431
 20
106.656188
 10
209.485824
 20
106.432946
 10
209.698731
 20
106.040206
 10
209.775212
 20
105.444894
 10
209.775212
 20
103.167
 10
209.192303
 20
103.167
 10
209.192303
 20
103.167
  0
LWPOLYLINE
  5
F1
100
AcDbEntity
  8
Layer 1
  6
ByLayer
 62
    7
370
   -1
100
AcDbPolyline
 90
   24
 70
    0
 43
0
 10
212.859258
 20
104.923996
 10
210.746728
 20
104.923996
 10
210.746728
 20
105.395285
 10
211.203547
 20
105.746684
 10
211.557013
 20
106.048474
 10
211.989028
 20
106.5425
 10
212.090313
 20
106.970381
 10
211.958022
 20
107.301109
 10
211.590086
 20
107.416864
 10
211.156005
 20
107.323847
 10
210.812874
 20
107.131611
 10
210.763264
 20
107.131611
 10
210.763264
 20
107.689716
 10
211.197346
 20
107.824074
 10
211.6645
 20
107.875751
 10
212.406573
 20
107.633905
 10
212.664955
 20
107.007588
 10
212.542998
 20
106.503226
 10
212.086179
 20
105.957524
 10
211.709975
 20
105.655734
 10
211.329637
 20
105.37048
 10
212.859258
 20
105.37048
 10
212.859258
 20
104.923996
 10
212.859258
 20
104.923996
  0
LWPOLYLINE
  5
F2
100
AcDbEntity
  8
Layer 1
  6
ByLayer
 62
    7
370
   -1
100
AcDbPolyline
 90
   40
 70
    0
 43
0
 10
166.189996
 20
186.920318
 10
165.334236
 20
187.023671
 10
164.672778
 20
187.279985
 10
164.672778
 20
188.04893
 10
164.714119
 20
188.04893
 10
165.404516
 20
187.60658
 10
166.144521
 20
187.449484
 10
166.913466
 20
187.66239
 10
167.173915
 20
188.222562
 10
167.037489
 20
188.67318
 10
166.603407
 20
188.929495
 10
166.212734
 20
189.030781
 10
165.768317
 20
189.140335
 10
165.342504
 20
189.297431
 10
165.007641
 20
189.549611
 10
164.784399
 20
189.907212
 10
164.705851
 20
190.384701
 10
164.815405
 20
190.898365
 10
165.144067
 20
191.323144
 10
165.642227
 20
191.608398
 10
166.260276
 20
191.703482
 10
166.994081
 20
191.627001
 10
167.632801
 20
191.405826
 10
167.632801
 20
190.669955
 10
167.587325
 20
190.669955
 10
167.02302
 20
191.023421
 10
166.301617
 20
191.174316
 10
165.609154
 20
190.973812
 10
165.346638
 20
190.446713
 10
165.501667
 20
189.979559
 10
165.950218
 20
189.727378
 10
166.427708
 20
189.607489
 10
166.896929
 20
189.483466
 10
167.593527
 20
189.043183
 10
167.814701
 20
188.317647
 10
167.703081
 20
187.784347
 10
167.393022
 20
187.337863
 10
166.890728
 20
187.027805
 10
166.189996
 20
186.920318
 10
166.189996
 20
186.920318
  0
LWPOLYLINE
  5
F3
100
AcDbEntity
  8
Layer 1
  6
ByLayer
 62
    7
370
   -1
100
AcDbPolyline
 90
   11
 70
    0
 43
0
 10
170.327206
 20
187.854627
 10
170.327206
 20
188.817874
 10
169.802175
 20
188.766198
 10
169.289545
 20
188.67318
 10
168.905073
 20
188.456139
 10
168.752111
 20
188.044796
 10
168.919542
 20
187.596245
 10
169.409434
 20
187.44535
 10
169.909661
 20
187.563172
 10
170.327206
 20
187.854627
 10
170.327206
 20
187.854627
  0
LWPOLYLINE
  5
F4
100
AcDbEntity
  8
Layer 1
  6
ByLayer
 62
    7
370
   -1
100
AcDbPolyline
 90
   32
 70
    0
 43
0
 10
170.327206
 20
187.370936
 10
170.137037
 20
187.226242
 10
169.905527
 20
187.07328
 10
169.607871
 20
186.951324
 10
169.202729
 20
186.907915
 10
168.795519
 20
186.988531
 10
168.458589
 20
187.21384
 10
168.235347
 20
187.567306
 10
168.152665
 20
188.007589
 10
168.30356
 20
188.619437
 10
168.785184
 20
189.020445
 10
169.471446
 20
189.20648
 10
170.327206
 20
189.280894
 10
170.327206
 20
189.392515
 10
170.265195
 20
189.725311
 10
170.091562
 20
189.917547
 10
169.818711
 20
190.012632
 10
169.487982
 20
190.037436
 10
169.01256
 20
189.975425
 10
168.466857
 20
189.801792
 10
168.433784
 20
189.801792
 10
168.433784
 20
190.39297
 10
168.894738
 20
190.494255
 10
169.492116
 20
190.550066
 10
170.091562
 20
190.494255
 10
170.533912
 20
190.293751
 10
170.812964
 20
189.923748
 10
170.905982
 20
189.371845
 10
170.905982
 20
187.003
 10
170.327206
 20
187.003
 10
170.327206
 20
187.370936
 10
170.327206
 20
187.370936
  0
LWPOLYLINE
  5
F5
100
AcDbEntity
  8
Layer 1
  6
ByLayer
 62
    7
370
   -1
100
AcDbPolyline
 90
    6
 70
    0
 43
0
 10
172.320881
 20
187.003
 10
171.737971
 20
187.003
 10
171.737971
 20
191.827506
 10
172.320881
 20
191.827506
 10
172.320881
 20
187.003
 10
172.320881
 20
187.003
  0
LWPOLYLINE
  5
F6
100
AcDbEntity
  8
Layer 1
  6
ByLayer
 62
    7
370
   -1
100
AcDbPolyline
 90
   18
 70
    0
 43
0
 10
176.025043
 20
188.735192
 10
175.919623
 20
187.959013
 10
175.603364
 20
187.383338
 10
175.112438
 20
187.026771
 10
174.48302
 20
186.907915
 10
173.837065
 20
187.030905
 10
173.34614
 20
187.399874
 10
173.036082
 20
187.979683
 10
172.932729
 20
188.735192
 10
173.039182
 20
189.506203
 10
173.358542
 20
190.082911
 10
173.852568
 20
190.442579
 10
174.48302
 20
190.562468
 10
175.112438
 20
190.442579
 10
175.603364
 20
190.082911
 10
175.919623
 20
189.506203
 10
176.025043
 20
188.735192
 10
176.025043
 20
188.735192
  0
LWPOLYLINE
  5
F7
100
AcDbEntity
  8
Layer 1
  6
ByLayer
 62
    7
370
   -1
100
AcDbPolyline
 90
   18
 70
    0
 43
0
 10
175.425597
 20
188.735192
 10
175.364102
 20
189.319652
 10
175.179617
 20
189.733579
 10
174.882478
 20
189.980076
 10
174.48302
 20
190.062241
 10
174.079944
 20
189.980076
 10
173.780221
 20
189.733579
 10
173.594186
 20
189.319652
 10
173.532175
 20
188.735192
 10
173.594186
 20
188.161067
 10
173.780221
 20
187.745073
 10
174.079944
 20
187.492375
 10
174.48302
 20
187.408143
 10
174.882478
 20
187.490825
 10
175.179617
 20
187.738871
 10
175.364102
 20
188.153316
 10
175.425597
 20
188.735192
 10
175.425597
 20
188.735192
  0
LWPOLYLINE
  5
F8
100
AcDbEntity
  8
Layer 1
  6
ByLayer
 62
    7
370
   -1
100
AcDbPolyline
 90
   22
 70
    0
 43
0
 10
179.348867
 20
187.003
 10
178.765957
 20
187.003
 10
178.765957
 20
188.97497
 10
178.741153
 20
189.421454
 10
178.654336
 20
189.752183
 10
178.453832
 20
189.944419
 10
178.108634
 20
190.008498
 10
177.658016
 20
189.892742
 10
177.207398
 20
189.590952
 10
177.207398
 20
187.003
 10
176.624489
 20
187.003
 10
176.624489
 20
190.467384
 10
177.207398
 20
190.467384
 10
177.207398
 20
190.082911
 10
177.722095
 20
190.438445
 10
178.257462
 20
190.562468
 10
178.714281
 20
190.478236
 10
179.059479
 20
190.225538
 10
179.27652
 20
189.813678
 10
179.348867
 20
189.251955
 10
179.348867
 20
187.003
 10
179.348867
 20
187.003
  0
LWPOLYLINE
  5
F9
100
AcDbEntity
  8
Layer 1
  6
ByLayer
 62
    7
370
   -1
100
AcDbPolyline
 90
   36
 70
    0
 43
0
 10
186.209421
 20
187.003
 10
185.415672
 20
187.003
 10
184.783153
 20
187.664457
 10
184.132031
 20
187.083615
 10
183.377556
 20
186.907915
 10
182.807049
 20
187.001966
 10
182.344029
 20
187.284119
 10
182.037071
 20
187.719234
 10
181.934752
 20
188.272172
 10
182.009166
 20
188.745527
 10
182.207603
 20
189.119664
 10
182.488723
 20
189.404918
 10
182.790513
 20
189.615757
 10
182.325425
 20
190.060174
 10
182.170396
 20
190.64515
 10
182.257213
 20
191.054427
 10
182.488723
 20
191.385156
 10
182.875262
 20
191.622867
 10
183.394093
 20
191.715885
 10
183.860213
 20
191.648189
 10
184.233317
 20
191.445101
 10
184.478263
 20
191.137626
 10
184.559911
 20
190.756771
 10
184.520637
 20
190.444646
 10
184.378011
 20
190.128387
 10
184.111361
 20
189.843133
 10
183.671078
 20
189.611623
 10
184.762483
 20
188.487145
 10
184.814159
 20
189.043183
 10
184.824494
 20
189.822463
 10
185.428074
 20
189.822463
 10
185.428074
 20
189.524807
 10
185.351593
 20
188.853014
 10
185.10148
 20
188.144014
 10
186.209421
 20
187.003
 10
186.209421
 20
187.003
  0
LWPOLYLINE
  5
FA
100
AcDbEntity
  8
Layer 1
  6
ByLayer
 62
    7
370
   -1
100
AcDbPolyline
 90
   13
 70
    0
 43
0
 10
184.514436
 20
187.937309
 10
183.088169
 20
189.396649
 10
182.931072
 20
189.278827
 10
182.761574
 20
189.074189
 10
182.629282
 20
188.791002
 10
182.571405
 20
188.421
 10
182.637034
 20
188.018441
 10
182.833921
 20
187.695463
 10
183.142429
 20
187.483073
 10
183.542921
 20
187.412277
 10
184.078288
 20
187.538367
 10
184.514436
 20
187.937309
 10
184.514436
 20
187.937309
  0
LWPOLYLINE
  5
FB
100
AcDbEntity
  8
Layer 1
  6
ByLayer
 62
    7
370
   -1
100
AcDbPolyline
 90
   14
 70
    0
 43
0
 10
183.377556
 20
189.830731
 10
183.664877
 20
189.987827
 10
183.840576
 20
190.206935
 10
183.923259
 20
190.436378
 10
183.952197
 20
190.69476
 10
183.776498
 20
191.161914
 10
183.369288
 20
191.327278
 10
182.935207
 20
191.141243
 10
182.77811
 20
190.674089
 10
182.800848
 20
190.461182
 10
182.898
 20
190.256544
 10
183.0799
 20
190.051906
 10
183.377556
 20
189.830731
 10
183.377556
 20
189.830731
  0
LWPOLYLINE
  5
FC
100
AcDbEntity
  8
Layer 1
  6
ByLayer
 62
    7
370
   -1
100
AcDbPolyline
 90
   38
 70
    0
 43
0
 10
190.264982
 20
186.920318
 10
189.431959
 20
187.071213
 10
188.776703
 20
187.523898
 10
188.348823
 20
188.274239
 10
188.197928
 20
189.305699
 10
188.344689
 20
190.318556
 10
188.772569
 20
191.06683
 10
189.427825
 20
191.540185
 10
190.273251
 20
191.703482
 10
190.709399
 20
191.670409
 10
191.08767
 20
191.583593
 10
191.391527
 20
191.467838
 10
191.699518
 20
191.314876
 10
191.699518
 20
190.570736
 10
191.649909
 20
190.570736
 10
191.443204
 20
190.75057
 10
191.133145
 20
190.959343
 10
190.748673
 20
191.116439
 10
190.269117
 20
191.17845
 10
189.708945
 20
191.058561
 10
189.247992
 20
190.703028
 10
188.944134
 20
190.109783
 10
188.834581
 20
189.305699
 10
188.950336
 20
188.491279
 10
189.264528
 20
187.912504
 10
189.715146
 20
187.565239
 10
190.269117
 20
187.449484
 10
190.761076
 20
187.51563
 10
191.162084
 20
187.680994
 10
191.45974
 20
187.877364
 10
191.654043
 20
188.04893
 10
191.699518
 20
188.04893
 10
191.699518
 20
187.317192
 10
191.412198
 20
187.180767
 10
191.08767
 20
187.052609
 10
190.713533
 20
186.953391
 10
190.264982
 20
186.920318
 10
190.264982
 20
186.920318
  0
LWPOLYLINE
  5
FD
100
AcDbEntity
  8
Layer 1
  6
ByLayer
 62
    7
370
   -1
100
AcDbPolyline
 90
   22
 70
    0
 43
0
 10
194.926191
 20
187.003
 10
194.343281
 20
187.003
 10
194.343281
 20
187.387472
 10
193.828585
 20
187.029872
 10
193.289083
 20
186.907915
 10
192.865337
 20
186.982329
 10
192.516005
 20
187.217974
 10
192.284495
 20
187.623116
 10
192.201813
 20
188.218428
 10
192.201813
 20
190.467384
 10
192.784722
 20
190.467384
 10
192.784722
 20
188.495413
 10
192.805393
 20
188.036527
 10
192.896343
 20
187.718201
 10
193.090646
 20
187.523898
 10
193.442045
 20
187.461886
 10
193.898865
 20
187.583842
 10
194.343281
 20
187.879431
 10
194.343281
 20
190.467384
 10
194.926191
 20
190.467384
 10
194.926191
 20
187.003
 10
194.926191
 20
187.003
  0
LWPOLYLINE
  5
FE
100
AcDbEntity
  8
Layer 1
  6
ByLayer
 62
    7
370
   -1
100
AcDbPolyline
 90
    6
 70
    0
 43
0
 10
196.362794
 20
187.003
 10
195.779884
 20
187.003
 10
195.779884
 20
190.467384
 10
196.362794
 20
190.467384
 10
196.362794
 20
187.003
 10
196.362794
 20
187.003
  0
LWPOLYLINE
  5
FF
100
AcDbEntity
  8
Layer 1
  6
ByLayer
 62
    7
370
   -1
100
AcDbPolyline
 90
    6
 70
    0
 43
0
 10
196.404135
 20
191.046159
 10
195.738543
 20
191.046159
 10
195.738543
 20
191.649739
 10
196.404135
 20
191.649739
 10
196.404135
 20
191.046159
 10
196.404135
 20
191.046159
  0
LWPOLYLINE
  5
100
100
AcDbEntity
  8
Layer 1
  6
ByLayer
 62
    7
370
   -1
100
AcDbPolyline
 90
   42
 70
    0
 43
0
 10
198.156997
 20
186.920318
 10
197.505875
 20
187.013335
 10
197.003581
 20
187.209705
 10
197.003581
 20
187.867029
 10
197.036654
 20
187.867029
 10
197.212353
 20
187.734737
 10
197.479003
 20
187.585909
 10
197.805598
 20
187.46602
 10
198.177668
 20
187.412277
 10
198.475324
 20
187.44535
 10
198.710968
 20
187.528032
 10
198.865997
 20
187.678927
 10
198.913539
 20
187.920772
 10
198.801918
 20
188.232898
 10
198.40091
 20
188.412731
 10
198.109455
 20
188.474743
 10
197.776659
 20
188.557425
 10
197.199951
 20
188.912959
 10
197.020117
 20
189.491734
 10
197.108484
 20
189.918581
 10
197.373583
 20
190.256544
 10
197.785444
 20
190.476685
 10
198.314093
 20
190.550066
 10
198.894936
 20
190.479786
 10
199.384828
 20
190.297885
 10
199.384828
 20
189.677769
 10
199.351755
 20
189.677769
 10
198.853595
 20
189.954754
 10
198.301691
 20
190.058107
 10
197.813866
 20
189.936151
 10
197.615429
 20
189.570282
 10
197.733251
 20
189.247821
 10
198.111522
 20
189.070055
 10
198.402977
 20
189.003909
 10
198.739907
 20
188.929495
 10
199.316615
 20
188.611169
 10
199.508851
 20
188.003454
 10
199.422035
 20
187.579708
 10
199.161586
 20
187.23451
 10
198.741974
 20
187.000933
 10
198.156997
 20
186.920318
 10
198.156997
 20
186.920318
  0
LWPOLYLINE
  5
101
100
AcDbEntity
  8
Layer 1
  6
ByLayer
 62
    7
370
   -1
100
AcDbPolyline
 90
    6
 70
    0
 43
0
 10
200.647798
 20
187.003
 10
200.064889
 20
187.003
 10
200.064889
 20
190.467384
 10
200.647798
 20
190.467384
 10
200.647798
 20
187.003
 10
200.647798
 20
187.003
  0
LWPOLYLINE
  5
102
100
AcDbEntity
  8
Layer 1
  6
ByLayer
 62
    7
370
   -1
100
AcDbPolyline
 90
    6
 70
    0
 43
0
 10
200.689139
 20
191.046159
 10
200.023548
 20
191.046159
 10
200.023548
 20
191.649739
 10
200.689139
 20
191.649739
 10
200.689139
 20
191.046159
 10
200.689139
 20
191.046159
  0
LWPOLYLINE
  5
103
100
AcDbEntity
  8
Layer 1
  6
ByLayer
 62
    7
370
   -1
100
AcDbPolyline
 90
   22
 70
    0
 43
0
 10
204.227937
 20
187.003
 10
203.645027
 20
187.003
 10
203.645027
 20
188.97497
 10
203.620223
 20
189.421454
 10
203.533406
 20
189.752183
 10
203.332902
 20
189.944419
 10
202.987704
 20
190.008498
 10
202.537086
 20
189.892742
 10
202.086468
 20
189.590952
 10
202.086468
 20
187.003
 10
201.503559
 20
187.003
 10
201.503559
 20
190.467384
 10
202.086468
 20
190.467384
 10
202.086468
 20
190.082911
 10
202.601165
 20
190.438445
 10
203.136532
 20
190.562468
 10
203.593351
 20
190.478236
 10
203.938549
 20
190.225538
 10
204.15559
 20
189.813678
 10
204.227937
 20
189.251955
 10
204.227937
 20
187.003
 10
204.227937
 20
187.003
  0
LWPOLYLINE
  5
104
100
AcDbEntity
  8
Layer 1
  6
ByLayer
 62
    7
370
   -1
100
AcDbPolyline
 90
   30
 70
    0
 43
0
 10
206.549239
 20
186.920318
 10
205.814401
 20
187.037106
 10
205.263531
 20
187.387472
 10
204.919367
 20
187.952812
 10
204.804645
 20
188.714521
 10
204.915749
 20
189.475197
 10
205.249062
 20
190.062241
 10
205.761175
 20
190.437411
 10
206.40868
 20
190.562468
 10
206.979187
 20
190.469451
 10
207.413268
 20
190.177996
 10
207.698522
 20
189.692238
 10
207.79774
 20
188.991507
 10
207.79774
 20
188.67318
 10
205.399957
 20
188.67318
 10
205.475921
 20
188.140914
 10
205.703814
 20
187.751274
 10
206.065032
 20
187.512529
 10
206.540971
 20
187.432947
 10
206.919242
 20
187.476356
 10
207.252038
 20
187.585909
 10
207.518688
 20
187.724402
 10
207.698522
 20
187.850492
 10
207.731595
 20
187.850492
 10
207.731595
 20
187.21384
 10
207.479414
 20
187.112554
 10
207.206563
 20
187.019536
 10
206.898572
 20
186.945122
 10
206.549239
 20
186.920318
 10
206.549239
 20
186.920318
  0
LWPOLYLINE
  5
105
100
AcDbEntity
  8
Layer 1
  6
ByLayer
 62
    7
370
   -1
100
AcDbPolyline
 90
   11
 70
    0
 43
0
 10
207.231367
 20
189.119664
 10
207.17349
 20
189.526874
 10
207.03293
 20
189.814194
 10
206.770414
 20
190.014699
 10
206.375607
 20
190.082911
 10
205.980799
 20
190.012632
 10
205.68521
 20
189.81006
 10
205.484706
 20
189.50827
 10
205.399957
 20
189.119664
 10
207.231367
 20
189.119664
 10
207.231367
 20
189.119664
  0
LWPOLYLINE
  5
106
100
AcDbEntity
  8
Layer 1
  6
ByLayer
 62
    7
370
   -1
100
AcDbPolyline
 90
   49
 70
    0
 43
0
 10
174.664364
 20
180.59545
 10
174.331568
 20
180.556176
 10
174.002906
 20
180.450757
 10
173.744525
 20
180.320532
 10
173.548154
 20
180.194442
 10
173.510947
 20
180.194442
 10
173.510947
 20
180.847631
 10
174.05665
 20
181.044001
 10
174.713973
 20
181.132885
 10
175.261743
 20
181.068806
 10
175.685489
 20
180.872436
 10
175.995547
 20
180.512768
 10
176.0989
 20
180.020809
 10
175.846719
 20
179.351084
 10
175.247273
 20
178.983148
 10
175.247273
 20
178.941807
 10
175.557332
 20
178.844655
 10
175.86739
 20
178.644151
 10
176.0989
 20
178.30102
 10
176.18985
 20
177.792524
 10
176.082363
 20
177.215816
 10
175.780573
 20
176.750729
 10
175.292749
 20
176.432402
 10
174.643693
 20
176.324915
 10
173.955364
 20
176.407598
 10
173.38279
 20
176.610169
 10
173.38279
 20
177.263358
 10
173.424131
 20
177.263358
 10
173.95123
 20
176.992574
 10
174.606486
 20
176.86235
 10
174.986824
 20
176.922294
 10
175.305151
 20
177.118664
 10
175.493253
 20
177.418387
 10
175.557332
 20
177.833865
 10
175.484985
 20
178.247276
 10
175.28448
 20
178.499457
 10
174.974422
 20
178.629681
 10
174.58995
 20
178.664821
 10
174.325367
 20
178.664821
 10
174.325367
 20
179.181585
 10
174.527938
 20
179.181585
 10
175.210066
 20
179.380022
 10
175.405403
 20
179.622901
 10
175.470515
 20
179.954664
 10
175.402302
 20
180.254386
 10
175.230737
 20
180.454891
 10
174.968221
 20
180.564445
 10
174.664364
 20
180.59545
 10
174.664364
 20
180.59545
  0
LWPOLYLINE
  5
107
100
AcDbEntity
  8
Layer 1
  6
ByLayer
 62
    7
370
   -1
100
AcDbPolyline
 90
   12
 70
    0
 43
0
 10
179.060989
 20
179.962932
 10
178.854284
 20
180.479695
 10
178.279643
 20
180.686401
 10
177.725672
 20
180.500366
 10
177.510698
 20
180.000139
 10
177.620252
 20
179.611532
 10
177.948914
 20
179.326279
 10
178.242436
 20
179.179518
 10
178.602103
 20
179.032757
 10
178.965905
 20
179.460637
 10
179.060989
 20
179.962932
 10
179.060989
 20
179.962932
  0
LWPOLYLINE
  5
108
100
AcDbEntity
  8
Layer 1
  6
ByLayer
 62
    7
370
   -1
100
AcDbPolyline
 90
   13
 70
    0
 43
0
 10
179.147806
 20
177.64783
 10
179.036185
 20
178.100515
 10
178.606237
 20
178.441579
 10
178.327185
 20
178.56767
 10
177.932377
 20
178.730967
 10
177.535503
 20
178.311355
 10
177.399077
 20
177.742915
 10
177.653325
 20
177.048385
 10
177.939095
 20
176.843746
 10
178.287911
 20
176.775533
 10
178.912161
 20
177.011178
 10
179.147806
 20
177.64783
 10
179.147806
 20
177.64783
  0
LWPOLYLINE
  5
109
100
AcDbEntity
  8
Layer 1
  6
ByLayer
 62
    7
370
   -1
100
AcDbPolyline
 90
   28
 70
    0
 43
0
 10
178.279643
 20
176.312513
 10
177.655392
 20
176.415866
 10
177.175835
 20
176.713522
 10
176.878179
 20
177.153804
 10
176.778961
 20
177.693306
 10
176.977398
 20
178.383702
 10
177.560308
 20
178.883929
 10
177.560308
 20
178.9046
 10
177.053879
 20
179.338681
 10
176.890582
 20
179.925725
 10
176.988767
 20
180.403214
 10
177.283322
 20
180.793888
 10
177.728772
 20
181.054337
 10
178.279643
 20
181.141153
 10
178.848599
 20
181.058987
 10
179.290432
 20
180.812491
 10
179.574136
 20
180.436804
 10
179.668703
 20
179.967066
 10
179.48887
 20
179.353151
 10
178.965905
 20
178.879795
 10
178.965905
 20
178.859125
 10
179.577753
 20
178.402305
 10
179.784458
 20
177.705708
 10
179.676972
 20
177.162073
 10
179.354511
 20
176.713522
 10
178.87082
 20
176.412765
 10
178.279643
 20
176.312513
 10
178.279643
 20
176.312513
  0
LWPOLYLINE
  5
10A
100
AcDbEntity
  8
Layer 1
  6
ByLayer
 62
    7
370
   -1
100
AcDbPolyline
 90
    6
 70
    0
 43
0
 10
181.564192
 20
177.304699
 10
180.696029
 20
175.270718
 10
180.245412
 20
175.270718
 10
180.791114
 20
177.304699
 10
181.564192
 20
177.304699
 10
181.564192
 20
177.304699
  0
LWPOLYLINE
  5
10B
100
AcDbEntity
  8
Layer 1
  6
ByLayer
 62
    7
370
   -1
100
AcDbPolyline
 90
    9
 70
    0
 43
0
 10
185.17327
 20
180.347404
 10
183.176495
 20
176.42
 10
182.515038
 20
176.42
 10
184.631702
 20
180.496232
 10
182.242186
 20
180.496232
 10
182.242186
 20
181.0378
 10
185.17327
 20
181.0378
 10
185.17327
 20
180.347404
 10
185.17327
 20
180.347404
  0
LWPOLYLINE
  5
10C
100
AcDbEntity
  8
Layer 1
  6
ByLayer
 62
    7
370
   -1
100
AcDbPolyline
 90
   14
 70
    0
 43
0
 10
188.354467
 20
176.42
 10
186.105512
 20
176.42
 10
186.105512
 20
176.891288
 10
186.940602
 20
176.891288
 10
186.940602
 20
179.987736
 10
186.105512
 20
179.987736
 10
186.105512
 20
180.409416
 10
186.802109
 20
180.543774
 10
187.056357
 20
181.054337
 10
187.535913
 20
181.054337
 10
187.535913
 20
176.891288
 10
188.354467
 20
176.891288
 10
188.354467
 20
176.42
 10
188.354467
 20
176.42
  0
LWPOLYLINE
  5
10D
100
AcDbEntity
  8
Layer 1
  6
ByLayer
 62
    7
370
   -1
100
AcDbPolyline
 90
   37
 70
    0
 43
0
 10
195.206753
 20
176.42
 10
195.206753
 20
178.425043
 10
195.18815
 20
178.865326
 10
195.111669
 20
179.181585
 10
194.933902
 20
179.365553
 10
194.623844
 20
179.425498
 10
194.239372
 20
179.315944
 10
193.813559
 20
178.99555
 10
193.81976
 20
178.871527
 10
193.825961
 20
178.697894
 10
193.825961
 20
176.42
 10
193.243051
 20
176.42
 10
193.243051
 20
178.425043
 10
193.224448
 20
178.865326
 10
193.143833
 20
179.181585
 10
192.968133
 20
179.365553
 10
192.660142
 20
179.425498
 10
192.2612
 20
179.307675
 10
191.858125
 20
179.007952
 10
191.858125
 20
176.42
 10
191.275215
 20
176.42
 10
191.275215
 20
179.884384
 10
191.858125
 20
179.884384
 10
191.858125
 20
179.499911
 10
192.312877
 20
179.853378
 10
192.80897
 20
179.979468
 10
193.352605
 20
179.840976
 10
193.71434
 20
179.380022
 10
194.226969
 20
179.828573
 10
194.772672
 20
179.979468
 10
195.179882
 20
179.909188
 10
195.500275
 20
179.685946
 10
195.713182
 20
179.293206
 10
195.789663
 20
178.697894
 10
195.789663
 20
176.42
 10
195.206753
 20
176.42
 10
195.206753
 20
176.42
  0
LWPOLYLINE
  5
10E
100
AcDbEntity
  8
Layer 1
  6
ByLayer
 62
    7
370
   -1
100
AcDbPolyline
 90
   24
 70
    0
 43
0
 10
198.873708
 20
178.176996
 10
196.761178
 20
178.176996
 10
196.761178
 20
178.648285
 10
197.217998
 20
178.999684
 10
197.571464
 20
179.301474
 10
198.003478
 20
179.7955
 10
198.104764
 20
180.223381
 10
197.972473
 20
180.554109
 10
197.604537
 20
180.669864
 10
197.170455
 20
180.576847
 10
196.827324
 20
180.384611
 10
196.777715
 20
180.384611
 10
196.777715
 20
180.942716
 10
197.211796
 20
181.077074
 10
197.678951
 20
181.128751
 10
198.421023
 20
180.886905
 10
198.679405
 20
180.260588
 10
198.557449
 20
179.756226
 10
198.10063
 20
179.210524
 10
197.724426
 20
178.908734
 10
197.344088
 20
178.62348
 10
198.873708
 20
178.62348
 10
198.873708
 20
178.176996
 10
198.873708
 20
178.176996
  0
ENDBLK
  5
4F
330
4D
100
AcDbEntity
  8
0
100
AcDbBlockEnd
  0
ENDSEC
  0
SECTION
  2
ENTITIES
  0
INSERT
  5
10F
100
AcDbEntity
  8
0
  6
ByLayer
 62
  256
370
   -1
100
AcDbBlockReference
  2
Rochettes
 10
54.25
 20
119
 30
0
 41
1
 42
1
 43
0
 50
0
 70
    1
 71
    1
 44
0
 45
0
  0
ENDSEC
  0
SECTION
  2
OBJECTS
  0
DICTIONARY
  5
C
330
0
100
AcDbDictionary
281
    1
  3
ACAD_GROUP
350
D
  0
DICTIONARY
  5
D
330
C
100
AcDbDictionary
281
    1
  0
PLOTSETTINGS
  5
110
100
AcDbPlotSettings
  6
1x1
 40
0
 41
0
 42
0
 43
0
  0
ENDSEC
  0
EOF
